<svg width="53" height="52" viewBox="0 0 53 52" fill="none" xmlns="http://www.w3.org/2000/svg">
<rect x="0.5" width="52" height="52" rx="26" fill="#98D7FE"/>
<path d="M15.6628 36.0821C16.1233 36.5961 16.7839 36.8908 17.4747 36.8908C18.0775 36.8908 18.6565 36.6677 19.1046 36.2634C20.1031 35.3628 20.184 33.8146 19.2855 32.8127L12.7178 25.4999L19.2855 18.1861C20.184 17.1853 20.1031 15.6371 19.1046 14.7366V14.7354C18.6208 14.2989 17.9924 14.0734 17.3462 14.1128C16.6952 14.1473 16.0977 14.4325 15.6628 14.9167L7.62703 23.8659C6.79099 24.7974 6.79099 26.2025 7.62703 27.1353L15.6628 36.0821ZM37.3372 14.9167C36.4387 13.9172 34.8957 13.8349 33.8954 14.7366C32.8969 15.6371 32.816 17.1853 33.7145 18.1872L40.2822 25.5L33.7145 32.8139C32.816 33.8146 32.8969 35.3628 33.8954 36.2646C34.3435 36.6677 34.9225 36.8908 35.5253 36.8908C36.2161 36.8908 36.8767 36.5961 37.3372 36.0833L45.373 27.134C46.209 26.2025 46.209 24.7974 45.373 23.866L37.3372 14.9167ZM30.7702 8.07031L30.7678 8.06915C29.4616 7.75185 28.1412 8.55697 27.8223 9.8606L20.4446 39.9752C20.1239 41.2825 20.9249 42.6076 22.231 42.9297C22.4209 42.9761 22.6166 43 22.8124 43C23.9371 43 24.91 42.2355 25.1777 41.1394L32.5554 11.0248C32.8761 9.71746 32.0751 8.39236 30.7702 8.07031Z" fill="#4E4DC9"/>
</svg>
