<svg width="53" height="52" viewBox="0 0 53 52" fill="none" xmlns="http://www.w3.org/2000/svg">
<rect x="0.5" width="52" height="52" rx="26" fill="#98D7FE"/>
<path d="M45.8801 15.6071C45.2423 15.314 44.5343 15.2186 43.8439 15.3329C43.1535 15.4472 42.5113 15.7661 41.997 16.25L37.4843 20.5357V17.4286C37.4843 15.7236 36.8208 14.0885 35.64 12.8829C34.4591 11.6773 32.8574 11 31.1874 11H12.2969C10.6268 11 9.02519 11.6773 7.84431 12.8829C6.66342 14.0885 6 15.7236 6 17.4286V34.5714C6 36.2764 6.66342 37.9115 7.84431 39.1171C9.02519 40.3227 10.6268 41 12.2969 41H31.1874C32.8574 41 34.4591 40.3227 35.64 39.1171C36.8208 37.9115 37.4843 36.2764 37.4843 34.5714V31.4643L42.018 35.75C42.6854 36.3668 43.5525 36.7102 44.4528 36.7143C44.9524 36.7131 45.446 36.6035 45.901 36.3929C46.5201 36.1372 47.0505 35.6989 47.4244 35.134C47.7982 34.5691 47.9986 33.9032 48 33.2214V18.7786C47.997 18.0943 47.7934 17.4267 47.4157 16.8615C47.0379 16.2963 46.5031 15.8595 45.8801 15.6071Z" fill="#4E4DC9"/>
</svg>
