<svg width="53" height="52" viewBox="0 0 53 52" fill="none" xmlns="http://www.w3.org/2000/svg">
<rect x="0.5" width="52" height="52" rx="26" fill="#98D7FE"/>
<path d="M46.5556 8C46.5556 6.89543 45.6601 6 44.5556 6H9.44444C8.33988 6 7.44444 6.89543 7.44444 8V8.875C7.44444 9.97957 8.33987 10.875 9.44444 10.875H44.5556C45.6601 10.875 46.5556 9.97957 46.5556 8.875V8ZM47.7778 30.375C48.4528 30.375 49 29.8278 49 29.1528V25.6986C49 25.5665 48.9869 25.4348 48.9609 25.3053L46.8778 14.9192C46.6904 13.9848 45.8698 13.3125 44.9169 13.3125H9.08314C8.13019 13.3125 7.30959 13.9849 7.12219 14.9192L5.03905 25.3053C5.01308 25.4348 5 25.5665 5 25.6986V29.1528C5 29.8278 5.54721 30.375 6.22222 30.375C6.89724 30.375 7.44444 30.9222 7.44444 31.5972V43C7.44444 44.1046 8.33987 45 9.44444 45H29.8889C30.9935 45 31.8889 44.1046 31.8889 43V32.375C31.8889 31.2704 32.7843 30.375 33.8889 30.375H39.6667C40.7712 30.375 41.6667 31.2704 41.6667 32.375V43C41.6667 44.1046 42.5621 45 43.6667 45H44.5556C45.6601 45 46.5556 44.1046 46.5556 43V31.5972C46.5556 30.9222 47.1028 30.375 47.7778 30.375ZM27 38.125C27 39.2296 26.1046 40.125 25 40.125H14.3333C13.2288 40.125 12.3333 39.2296 12.3333 38.125V32.375C12.3333 31.2704 13.2288 30.375 14.3333 30.375H25C26.1046 30.375 27 31.2704 27 32.375V38.125Z" fill="#4E4DC9"/>
</svg>
