<svg width="53" height="52" viewBox="0 0 53 52" fill="none" xmlns="http://www.w3.org/2000/svg">
<rect x="0.5" width="52" height="52" rx="26" fill="#98D7FE"/>
<path d="M11.9374 20.3636C11.6452 20.0717 11.4134 19.7251 11.2552 19.3435C11.0971 18.962 11.0156 18.553 11.0156 18.14C11.0156 17.7269 11.0971 17.318 11.2552 16.9364C11.4134 16.5549 11.6452 16.2082 11.9374 15.9163L21.9398 5.92179C22.3789 5.48221 22.9384 5.18264 23.5477 5.06091C24.157 4.93919 24.7886 5.00077 25.3629 5.23788C25.9372 5.47499 26.4283 5.87699 26.7742 6.3931C27.1202 6.9092 27.3053 7.51625 27.3064 8.13756C27.3055 8.44877 27.2606 8.75829 27.1728 9.05687C27.1728 9.13544 27.1178 9.21402 27.0864 9.30045C26.9275 9.68887 26.6924 10.0415 26.3949 10.3376L16.3847 20.3636C16.0928 20.6558 15.7462 20.8876 15.3646 21.0458C14.9831 21.204 14.5741 21.2854 14.1611 21.2854C13.748 21.2854 13.339 21.204 12.9575 21.0458C12.576 20.8876 12.2293 20.6558 11.9374 20.3636ZM22.1598 26.8066L3.67936 45.2635C3.45961 45.482 3.18019 45.6306 2.87623 45.6907C2.57226 45.7508 2.25731 45.7197 1.97098 45.6013C1.68464 45.4829 1.4397 45.2825 1.26693 45.0252C1.09417 44.768 1.0013 44.4655 1 44.1556C1.01415 43.7444 1.18906 43.355 1.48716 43.0713L19.9598 24.5751C20.8109 25.1929 21.5542 25.9469 22.1598 26.8066ZM25.2792 29.2503L25.1692 29.3681C24.6169 27.5277 23.6175 25.8526 22.2602 24.4925C20.9028 23.1324 19.2298 22.1296 17.3904 21.5736L17.5004 21.4715L27.495 11.4769C27.5736 11.3984 27.6521 11.3119 27.7228 11.2255C28.252 13.0825 29.2463 14.7737 30.6117 16.139C31.977 17.5044 33.6682 18.4987 35.5252 19.0278L35.2738 19.2557L25.2792 29.2503ZM41.7561 22.5872C41.7554 23.0006 41.6731 23.4098 41.514 23.7914C41.3549 24.173 41.1221 24.5194 40.8289 24.8108L30.8344 34.8133C30.5425 35.1055 30.1958 35.3373 29.8143 35.4955C29.4327 35.6536 29.0238 35.735 28.6107 35.735C28.1977 35.735 27.7887 35.6536 27.4072 35.4955C27.0256 35.3373 26.679 35.1055 26.3871 34.8133C26.0953 34.5212 25.864 34.1744 25.7062 33.7929C25.5485 33.4114 25.4675 33.0025 25.4678 32.5896C25.4677 32.256 25.5207 31.9244 25.6249 31.6075C25.6424 31.546 25.6633 31.4857 25.6878 31.4267C25.8407 31.0264 26.0794 30.6644 26.3871 30.366L36.3895 20.3636C36.6952 20.0594 37.0622 19.8237 37.466 19.6721C37.5341 19.6416 37.6052 19.6179 37.6781 19.6014C37.9875 19.5003 38.3112 19.4499 38.6367 19.4521C39.4703 19.4521 40.2697 19.7833 40.8591 20.3727C41.4485 20.9621 41.7796 21.7615 41.7796 22.5951L41.7561 22.5872ZM42.9661 42.2856H24.1085C23.4833 42.2856 22.8837 42.5339 22.4417 42.976C21.9996 43.4181 21.7513 44.0176 21.7513 44.6428C21.7513 45.268 21.9996 45.8675 22.4417 46.3096C22.8837 46.7517 23.4833 47 24.1085 47H42.9661C43.5913 47 44.1908 46.7517 44.6329 46.3096C45.075 45.8675 45.3233 45.268 45.3233 44.6428C45.3233 44.0176 45.075 43.4181 44.6329 42.976C44.1908 42.5339 43.5913 42.2856 42.9661 42.2856Z" fill="#4E4DC9"/>
</svg>
