<svg width="53" height="52" viewBox="0 0 53 52" fill="none" xmlns="http://www.w3.org/2000/svg">
<circle cx="26.5" cy="26" r="26" fill="#98D7FE"/>
<path fill-rule="evenodd" clip-rule="evenodd" d="M43.6969 42.9999H8.30562C7.66536 42.9999 7.05164 42.7457 6.5996 42.2929C6.14675 41.8408 5.89258 41.2271 5.89258 40.5869V28.5217H23.5882V29.326C23.5882 30.6588 24.6684 31.7391 26.0012 31.7391C27.3341 31.7391 28.4143 30.6588 28.4143 29.326V28.5217H46.1099V40.5869C46.1099 41.2271 45.8558 41.8408 45.4029 42.2929C44.9509 42.7457 44.3371 42.9999 43.6969 42.9999Z" fill="#4E4DC9"/>
<path fill-rule="evenodd" clip-rule="evenodd" d="M25.9997 25.3044C25.5557 25.3044 25.1953 25.6647 25.1953 26.1087V29.3261C25.1953 29.7701 25.5557 30.1305 25.9997 30.1305C26.4437 30.1305 26.804 29.7701 26.804 29.3261V26.1087C26.804 25.6647 26.4437 25.3044 25.9997 25.3044Z" fill="#4E4DC9"/>
<path fill-rule="evenodd" clip-rule="evenodd" d="M28.4136 26.913H46.9136C47.1267 26.913 47.3318 26.8286 47.4823 26.6773C47.6335 26.5269 47.7179 26.3218 47.7179 26.1087V13.2391C47.7179 13.026 47.6335 12.8209 47.4823 12.6704C47.3318 12.5192 47.1267 12.4348 46.9136 12.4348H5.08755C4.8744 12.4348 4.66929 12.5192 4.51888 12.6704C4.36766 12.8209 4.2832 13.026 4.2832 13.2391V26.1087C4.2832 26.3218 4.36766 26.5269 4.51888 26.6773C4.66929 26.8286 4.8744 26.913 5.08755 26.913H23.5875V26.1087C23.5875 24.7759 24.6678 23.6956 26.0006 23.6956C27.3334 23.6956 28.4136 24.7759 28.4136 26.1087V26.913ZM31.631 10.8261H30.0223V8.41304C30.0223 7.96904 29.662 7.60869 29.218 7.60869H22.7832C22.3392 7.60869 21.9788 7.96904 21.9788 8.41304V10.8261H20.3701V8.41304C20.3701 7.08024 21.4504 6 22.7832 6H29.218C30.5508 6 31.631 7.08024 31.631 8.41304V10.8261Z" fill="#4E4DC9"/>
</svg>
