<svg width="53" height="52" viewBox="0 0 53 52" fill="none" xmlns="http://www.w3.org/2000/svg">
<circle cx="26.5" cy="26" r="26" fill="#98D7FE"/>
<path d="M43.5977 41.8078V16.9L30.8477 4H13.8477C11.4995 4 9.61891 5.92425 9.61891 8.3L9.59766 42.7C9.59766 45.0758 11.4783 47 13.8264 47H39.3477C40.2933 47 41.1645 46.6775 41.8658 46.14L32.4414 36.6048C30.7129 37.7771 28.6786 38.4021 26.5977 38.4C20.7327 38.4 15.9727 33.584 15.9727 27.65C15.9727 21.716 20.7327 16.9 26.5977 16.9C32.4627 16.9 37.2227 21.716 37.2227 27.65C37.2227 29.843 36.5639 31.8748 35.4589 33.5733L43.5977 41.8078ZM20.2227 27.65C20.2227 31.2083 23.0808 34.1 26.5977 34.1C30.1145 34.1 32.9727 31.2083 32.9727 27.65C32.9727 24.0918 30.1145 21.2 26.5977 21.2C23.0808 21.2 20.2227 24.0918 20.2227 27.65Z" fill="#4E4DC9"/>
</svg>
