<svg width="328" height="85" viewBox="0 0 328 85" fill="none" xmlns="http://www.w3.org/2000/svg">
<path d="M123.672 38.8487L123.211 38.6544L123.672 38.8487ZM327.711 14.1347C327.948 13.9936 328.027 13.6868 327.886 13.4494L325.587 9.58096C325.446 9.34358 325.139 9.26549 324.901 9.40657C324.664 9.54764 324.586 9.85444 324.727 10.0918L326.77 13.5305L323.332 15.5739C323.094 15.715 323.016 16.0218 323.157 16.2592C323.298 16.4966 323.605 16.5747 323.843 16.4336L327.711 14.1347ZM0.923803 83.8241C13.9678 86.2109 29.7876 80.7648 45.6968 72.3211C61.6287 63.8654 77.7621 52.3408 91.4634 42.4276C98.3196 37.4669 104.562 32.9131 109.878 29.338C115.207 25.7539 119.551 23.1904 122.622 22.1742C124.168 21.6625 125.288 21.5795 126.026 21.8516C126.698 22.0991 127.171 22.6894 127.312 23.9018C127.456 25.1378 127.236 26.9315 126.566 29.3889C125.898 31.8359 124.795 34.8986 123.211 38.6544L124.133 39.043C125.726 35.2657 126.846 32.1582 127.53 29.6521C128.211 27.1564 128.472 25.2143 128.305 23.7861C128.136 22.3343 127.509 21.3321 126.372 20.9133C125.302 20.5191 123.905 20.696 122.307 21.2248C119.09 22.2898 114.64 24.93 109.32 28.5082C103.986 32.0955 97.7254 36.6626 90.8772 41.6174C77.1697 51.535 61.0898 63.0193 45.228 71.4378C29.3437 79.8683 13.7896 85.1616 1.10379 82.8405L0.923803 83.8241ZM123.211 38.6544C121.223 43.3691 119.779 47.1428 118.817 50.0902C117.858 53.0266 117.365 55.1795 117.303 56.6373C117.272 57.362 117.345 57.9745 117.568 58.4354C117.809 58.9324 118.219 59.2334 118.753 59.2925C119.241 59.3465 119.783 59.1927 120.335 58.9344C120.897 58.6713 121.527 58.2728 122.211 57.7657C124.939 55.7455 128.791 51.815 133.218 46.9616C137.653 42.0986 142.701 36.2698 147.824 30.4305C152.951 24.5874 158.156 18.7314 162.917 13.7994C167.686 8.85858 171.98 4.87812 175.286 2.75965C176.951 1.69295 178.291 1.14858 179.278 1.12616C179.755 1.11531 180.13 1.22694 180.429 1.44474C180.731 1.66491 180.998 2.02564 181.199 2.58808C181.607 3.73306 181.697 5.59789 181.336 8.36311C180.977 11.1118 180.182 14.6888 178.878 19.2183L179.839 19.495C181.15 14.941 181.96 11.3107 182.328 8.49251C182.693 5.69085 182.631 3.6292 182.141 2.25228C181.892 1.55377 181.523 1.00469 181.018 0.63673C180.51 0.266385 179.909 0.11155 179.255 0.126415C177.98 0.155417 176.443 0.831226 174.747 1.91763C171.332 4.10535 166.968 8.16277 162.197 13.1049C157.418 18.0557 152.2 23.9277 147.073 29.771C141.942 35.6181 136.906 41.4341 132.479 46.2877C128.043 51.1509 124.254 55.0087 121.616 56.962C120.959 57.4483 120.39 57.8047 119.911 58.0287C119.422 58.2574 119.081 58.3227 118.863 58.2985C118.69 58.2794 118.568 58.2047 118.468 57.9992C118.351 57.7576 118.274 57.3407 118.302 56.6797C118.358 55.3661 118.814 53.3221 119.768 50.4006C120.718 47.49 122.15 43.7445 124.133 39.043L123.211 38.6544ZM178.878 19.2183C176.263 28.3028 174.952 34.6657 174.897 38.872C174.87 40.9741 175.154 42.5988 175.797 43.7648C176.457 44.9617 177.473 45.6361 178.785 45.8557C180.064 46.0699 181.609 45.8498 183.373 45.3289C185.144 44.8058 187.185 43.9646 189.476 42.8904C194.052 40.7445 199.708 37.6298 206.312 34.1765C232.771 20.3415 274.881 0.840488 327.332 14.1894L327.579 13.2203C274.748 -0.225219 232.349 19.4338 205.849 33.2903C199.213 36.76 193.602 39.8513 189.051 41.985C186.778 43.0507 184.79 43.8676 183.089 44.3699C181.381 44.8743 180.009 45.0467 178.95 44.8694C177.922 44.6973 177.176 44.1961 176.673 43.2821C176.152 42.3372 175.871 40.9157 175.897 38.8851C175.95 34.826 177.224 28.5776 179.839 19.495L178.878 19.2183Z" fill="black"/>
</svg>
