<svg width="67" height="67" viewBox="0 0 67 67" fill="none" xmlns="http://www.w3.org/2000/svg">
<rect x="0.5" y="0.5" width="66" height="66" rx="33" fill="black" stroke="black"/>
<path d="M23.0219 42.5636C22.6314 42.9542 22.6314 43.5873 23.0219 43.9779C23.4124 44.3684 24.0456 44.3684 24.4361 43.9779L23.0219 42.5636ZM44.2707 23.7291C44.2707 23.1768 43.823 22.7291 43.2707 22.7291L34.2707 22.7291C33.7184 22.7291 33.2707 23.1768 33.2707 23.7291C33.2707 24.2814 33.7184 24.7291 34.2707 24.7291L42.2707 24.7291L42.2707 32.7291C42.2707 33.2814 42.7184 33.7291 43.2707 33.7291C43.823 33.7291 44.2707 33.2814 44.2707 32.7291L44.2707 23.7291ZM24.4361 43.9779L43.9778 24.4362L42.5636 23.022L23.0219 42.5636L24.4361 43.9779Z" fill="white"/>
</svg>
