<svg width="317" height="317" viewBox="0 0 317 317" fill="none" xmlns="http://www.w3.org/2000/svg">
<path d="M104.804 89.0743L103.848 90.1865C103.685 90.0818 103.499 90.0065 103.292 89.9605C103.087 89.9123 102.866 89.9167 102.628 89.9737C102.39 90.0307 102.144 90.1638 101.888 90.373C101.539 90.6586 101.312 90.9753 101.206 91.3232C101.099 91.6682 101.145 91.9631 101.345 92.2076C101.518 92.4192 101.736 92.5255 101.998 92.5265C102.261 92.5275 102.6 92.4263 103.017 92.2232L104.211 91.6308C104.904 91.2887 105.508 91.1408 106.023 91.1872C106.539 91.2336 106.98 91.4808 107.346 91.9287C107.657 92.308 107.823 92.7359 107.846 93.2127C107.87 93.6844 107.755 94.1638 107.502 94.6508C107.252 95.1355 106.871 95.5871 106.36 96.0054C105.651 96.5857 104.949 96.908 104.253 96.9723C103.556 97.0338 102.927 96.8259 102.366 96.3485L103.409 95.1921C103.737 95.442 104.082 95.5521 104.444 95.5226C104.803 95.4903 105.168 95.3223 105.539 95.0187C105.943 94.6881 106.197 94.34 106.302 93.9744C106.404 93.6061 106.355 93.2997 106.155 93.0551C105.993 92.8573 105.783 92.7517 105.524 92.7385C105.268 92.7231 104.961 92.8047 104.603 92.9834L103.338 93.6256C102.637 93.9745 102.025 94.1177 101.501 94.0553C100.98 93.9907 100.535 93.733 100.167 93.2823C99.8607 92.9086 99.6975 92.4961 99.6769 92.0448C99.6564 91.5936 99.7661 91.139 100.006 90.6809C100.244 90.2202 100.601 89.7952 101.076 89.4062C101.76 88.8461 102.42 88.5537 103.056 88.5289C103.69 88.5013 104.272 88.6831 104.804 89.0743Z" fill="black"/>
<path d="M116.875 84.5828L114.469 80.4426L115.851 79.6396L119.962 86.7135L118.608 87.5004L117.896 86.2754L117.822 86.3182C117.879 86.7904 117.801 87.2568 117.588 87.7173C117.376 88.173 117.005 88.5552 116.474 88.8639C116.019 89.128 115.559 89.2619 115.093 89.2658C114.628 89.2648 114.181 89.1242 113.751 88.8442C113.325 88.5623 112.942 88.1297 112.603 87.5463L109.988 83.0468L111.365 82.2465L113.884 86.5802C114.164 87.0623 114.52 87.3684 114.953 87.4987C115.386 87.629 115.816 87.5702 116.243 87.3222C116.501 87.1723 116.72 86.9588 116.9 86.6817C117.083 86.4029 117.183 86.0839 117.2 85.7248C117.22 85.3639 117.112 84.9833 116.875 84.5828Z" fill="black"/>
<path d="M125.406 84.1436L121.549 73.939L123.039 73.3759L124.472 77.1678L124.561 77.1339C124.587 76.9418 124.642 76.7103 124.726 76.4395C124.81 76.1688 124.967 75.9007 125.197 75.6353C125.425 75.3667 125.777 75.1426 126.252 74.963C126.87 74.7295 127.48 74.6772 128.083 74.8062C128.686 74.9351 129.237 75.2415 129.735 75.7252C130.236 76.2077 130.643 76.8625 130.956 77.6897C131.268 78.5168 131.398 79.2781 131.346 79.9736C131.293 80.6657 131.085 81.2623 130.724 81.7632C130.362 82.2608 129.872 82.6264 129.254 82.8599C128.789 83.0357 128.379 83.1014 128.024 83.057C127.673 83.0114 127.375 82.9153 127.13 82.7688C126.884 82.6223 126.686 82.4846 126.535 82.3557L126.41 82.4028L126.86 83.5937L125.406 84.1436ZM125.419 79.7651C125.623 80.3032 125.879 80.7454 126.188 81.0917C126.497 81.4379 126.843 81.6698 127.226 81.7872C127.607 81.9014 128.011 81.8775 128.44 81.7155C128.885 81.5473 129.212 81.2888 129.422 80.9399C129.631 80.5877 129.734 80.1785 129.733 79.7122C129.734 79.2446 129.639 78.755 129.445 78.2434C129.254 77.7385 129.007 77.314 128.702 76.9698C128.4 76.6244 128.055 76.3925 127.665 76.2742C127.278 76.1547 126.86 76.1797 126.412 76.3492C125.98 76.5124 125.656 76.7617 125.442 77.0973C125.23 77.4316 125.123 77.8269 125.121 78.2833C125.119 78.7397 125.218 79.2336 125.419 79.7651Z" fill="black"/>
<path d="M138.102 79.8119L136.736 71.7449L138.243 71.4896L138.465 72.8026L138.565 72.7857C138.658 72.3126 138.874 71.9194 139.213 71.6062C139.552 71.2894 139.988 71.086 140.52 70.9959C141.059 70.9045 141.532 70.9541 141.939 71.1445C142.349 71.3343 142.68 71.635 142.929 72.0465L143.013 72.0323C143.133 71.569 143.381 71.174 143.758 70.8472C144.134 70.5169 144.613 70.3026 145.194 70.2042C145.926 70.0802 146.562 70.2084 147.102 70.5888C147.645 70.9686 147.995 71.6207 148.152 72.545L149.068 77.9545L147.498 78.2204L146.606 72.958C146.514 72.4118 146.298 72.0414 145.959 71.8467C145.62 71.652 145.243 71.5897 144.83 71.6597C144.319 71.7462 143.948 71.9711 143.718 72.3343C143.487 72.6939 143.413 73.1188 143.497 73.609L144.367 78.7506L142.802 79.0157L141.894 73.6535C141.82 73.2159 141.624 72.8871 141.306 72.6673C140.987 72.4474 140.61 72.3746 140.172 72.4487C139.874 72.4991 139.613 72.6244 139.387 72.8247C139.165 73.0209 139 73.2703 138.893 73.573C138.789 73.8751 138.768 74.2082 138.83 74.5723L139.672 79.5459L138.102 79.8119Z" fill="black"/>
<path d="M155.295 77.7952L155.227 69.6137L156.819 69.6004L156.888 77.7819L155.295 77.7952ZM156.021 68.3446C155.744 68.3469 155.505 68.2566 155.304 68.0736C155.108 67.887 155.008 67.6641 155.006 67.4049C155.004 67.1421 155.099 66.9176 155.293 66.7313C155.49 66.5414 155.728 66.4453 156.005 66.443C156.282 66.4407 156.518 66.5328 156.715 66.7194C156.916 66.9024 157.017 67.1253 157.019 67.388C157.021 67.6472 156.924 67.8718 156.727 68.0617C156.533 68.248 156.297 68.3423 156.021 68.3446Z" fill="black"/>
<path d="M168.072 70.3122L167.937 71.5835L163.493 71.1129L163.628 69.8416L168.072 70.3122ZM165.026 68.0185L166.61 68.1862L165.795 75.8829C165.762 76.1901 165.784 76.4263 165.859 76.5914C165.935 76.7529 166.042 76.8696 166.181 76.9415C166.324 77.0101 166.481 77.0536 166.654 77.072C166.782 77.0854 166.894 77.0884 166.991 77.0808C167.088 77.0733 167.164 77.067 167.218 77.062L167.365 78.4007C167.27 78.4263 167.135 78.4477 166.962 78.4651C166.789 78.486 166.575 78.4848 166.32 78.4614C165.902 78.4243 165.522 78.309 165.178 78.1155C164.834 77.922 164.568 77.651 164.38 77.3025C164.192 76.9541 164.124 76.5345 164.176 76.0436L165.026 68.0185Z" fill="black"/>
<path d="M181.004 84.7714C180.781 84.6898 180.584 84.5971 180.414 84.4934C180.243 84.393 180.119 84.3063 180.044 84.2334L180.852 83.1392C181.099 83.3125 181.331 83.4332 181.548 83.5012C181.765 83.5692 181.983 83.558 182.201 83.4676C182.422 83.3784 182.659 83.1869 182.91 82.893L183.281 82.4503L183.314 73.6379L184.915 74.2229L184.682 80.8978L184.762 80.9271L188.888 75.6743L190.494 76.2611L184.144 83.8146C183.851 84.1612 183.541 84.4315 183.213 84.6255C182.883 84.8228 182.536 84.9343 182.172 84.9598C181.807 84.9853 181.418 84.9225 181.004 84.7714Z" fill="black"/>
<path d="M195.744 88.1906C195.077 87.8125 194.581 87.3296 194.257 86.7419C193.933 86.1542 193.789 85.5075 193.825 84.8017C193.862 84.096 194.088 83.3754 194.505 82.64C194.923 81.9015 195.427 81.3337 196.015 80.9364C196.603 80.5391 197.233 80.3284 197.904 80.3043C198.574 80.2802 199.243 80.4572 199.911 80.8352C200.578 81.2133 201.074 81.6962 201.398 82.2838C201.722 82.8715 201.865 83.5198 201.827 84.2287C201.789 84.9375 201.56 85.6612 201.142 86.3997C200.725 87.135 200.224 87.6998 199.637 88.094C199.051 88.4883 198.422 88.6974 197.751 88.7215C197.081 88.7456 196.412 88.5686 195.744 88.1906ZM196.408 87.0299C196.84 87.2749 197.264 87.3636 197.677 87.296C198.091 87.2284 198.474 87.043 198.825 86.74C199.179 86.4387 199.486 86.0594 199.745 85.6021C200.002 85.1479 200.169 84.6914 200.245 84.2326C200.326 83.7725 200.29 83.346 200.137 82.9532C199.984 82.5605 199.692 82.2416 199.259 81.9965C198.823 81.7497 198.396 81.6608 197.978 81.7298C197.562 81.8005 197.176 81.988 196.82 82.2924C196.469 82.5954 196.165 82.9741 195.907 83.4283C195.648 83.8856 195.479 84.3427 195.4 84.7998C195.324 85.2586 195.363 85.6829 195.518 86.0725C195.675 86.464 195.972 86.7831 196.408 87.0299Z" fill="black"/>
<path d="M210.523 94.1584L213.536 90.4363L214.779 91.4418L209.631 97.8012L208.413 96.8158L209.305 95.7145L209.239 95.6609C208.818 95.882 208.354 95.975 207.848 95.9399C207.347 95.9043 206.857 95.6932 206.38 95.3067C205.971 94.976 205.682 94.5936 205.513 94.1595C205.348 93.7248 205.321 93.2569 205.429 92.7556C205.541 92.2565 205.809 91.7448 206.234 91.2203L209.508 87.1754L210.746 88.1774L207.592 92.0734C207.241 92.5067 207.082 92.9489 207.115 93.4C207.147 93.8511 207.355 94.2319 207.739 94.5425C207.97 94.7302 208.248 94.8588 208.571 94.9283C208.896 95.0001 209.23 94.9801 209.572 94.8684C209.916 94.7589 210.234 94.5222 210.523 94.1584Z" fill="black"/>
<path d="M213.874 101.957L219.872 96.392L220.919 97.5205L219.967 98.4045L220.025 98.467C220.449 98.2768 220.881 98.234 221.322 98.3384C221.768 98.4431 222.154 98.6711 222.48 99.0226C222.548 99.0955 222.625 99.1838 222.711 99.2875C222.8 99.3939 222.868 99.4793 222.913 99.5438L221.796 100.58C221.766 100.521 221.703 100.424 221.607 100.29C221.514 100.154 221.412 100.025 221.301 99.9056C221.045 99.6297 220.758 99.438 220.441 99.3306C220.128 99.2234 219.811 99.2028 219.489 99.2686C219.17 99.3321 218.881 99.4845 218.62 99.7261L214.958 103.124L213.874 101.957Z" fill="black"/>
<path d="M222.227 117.671L232.113 112.303L232.855 113.67L231.69 114.303L231.753 114.42C231.947 114.42 232.184 114.443 232.464 114.489C232.743 114.535 233.03 114.654 233.324 114.846C233.621 115.036 233.891 115.354 234.133 115.8C234.449 116.381 234.583 116.979 234.537 117.593C234.491 118.208 234.263 118.795 233.851 119.354C233.441 119.916 232.847 120.408 232.07 120.83C231.293 121.252 230.557 121.485 229.86 121.527C229.167 121.568 228.548 121.444 228.003 121.154C227.461 120.862 227.032 120.426 226.717 119.846C226.48 119.409 226.359 119.012 226.355 118.654C226.352 118.3 226.407 117.992 226.519 117.729C226.631 117.466 226.74 117.251 226.848 117.084L226.802 116.999L222.987 119.071L222.227 117.671ZM229.263 115.627C228.757 115.901 228.354 116.215 228.053 116.569C227.752 116.922 227.569 117.296 227.504 117.691C227.443 118.084 227.522 118.482 227.74 118.884C227.967 119.302 228.268 119.592 228.642 119.752C229.019 119.911 229.439 119.958 229.901 119.893C230.364 119.831 230.836 119.67 231.317 119.409C231.791 119.151 232.178 118.848 232.478 118.5C232.779 118.154 232.962 117.78 233.026 117.378C233.092 116.978 233.011 116.568 232.782 116.146C232.562 115.741 232.271 115.454 231.909 115.287C231.549 115.123 231.143 115.071 230.69 115.13C230.238 115.19 229.762 115.356 229.263 115.627Z" fill="black"/>
<path d="M230.876 128.461L238.564 125.66L239.091 127.106L237.87 127.551L237.899 127.631C238.364 127.621 238.779 127.749 239.145 128.017C239.515 128.286 239.782 128.646 239.946 129.096C239.98 129.19 240.017 129.301 240.057 129.43C240.098 129.563 240.126 129.668 240.143 129.745L238.712 130.266C238.706 130.2 238.686 130.087 238.65 129.926C238.617 129.764 238.573 129.606 238.517 129.453C238.388 129.099 238.198 128.811 237.947 128.589C237.701 128.369 237.417 128.227 237.095 128.163C236.776 128.097 236.45 128.125 236.116 128.247L231.422 129.958L230.876 128.461Z" fill="black"/>
<path d="M234.475 141.293C234.322 140.542 234.36 139.851 234.59 139.22C234.82 138.59 235.213 138.056 235.769 137.62C236.325 137.184 237.017 136.882 237.845 136.712C238.677 136.543 239.436 136.549 240.122 136.731C240.808 136.914 241.38 137.25 241.839 137.74C242.298 138.23 242.604 138.851 242.758 139.602C242.911 140.354 242.873 141.045 242.643 141.675C242.413 142.306 242.018 142.839 241.458 143.276C240.899 143.713 240.203 144.016 239.371 144.186C238.543 144.355 237.788 144.348 237.105 144.165C236.423 143.982 235.852 143.645 235.393 143.155C234.935 142.665 234.628 142.045 234.475 141.293ZM235.786 141.031C235.885 141.518 236.097 141.895 236.419 142.163C236.742 142.43 237.133 142.597 237.593 142.663C238.052 142.732 238.54 142.714 239.055 142.609C239.566 142.504 240.02 142.33 240.416 142.086C240.816 141.845 241.114 141.538 241.31 141.164C241.505 140.791 241.553 140.361 241.454 139.874C241.354 139.383 241.14 139.003 240.813 138.732C240.487 138.466 240.092 138.298 239.628 138.229C239.169 138.164 238.684 138.183 238.172 138.288C237.658 138.393 237.202 138.565 236.805 138.806C236.409 139.05 236.115 139.358 235.923 139.731C235.731 140.107 235.686 140.54 235.786 141.031Z" fill="black"/>
<path d="M244.219 150.837L244.322 152.427L235.626 152.991C235.08 153.026 234.613 152.957 234.224 152.783C233.836 152.612 233.532 152.34 233.312 151.967C233.092 151.597 232.964 151.13 232.928 150.566C232.924 150.51 232.92 150.456 232.917 150.407C232.914 150.354 232.912 150.299 232.912 150.242L234.278 150.153C234.281 150.203 234.284 150.247 234.287 150.286C234.289 150.321 234.291 150.362 234.294 150.408C234.319 150.784 234.437 151.048 234.65 151.202C234.86 151.359 235.154 151.425 235.533 151.401L244.219 150.837ZM245.53 151.542C245.512 151.266 245.588 151.023 245.76 150.812C245.935 150.605 246.152 150.493 246.411 150.476C246.673 150.459 246.902 150.542 247.099 150.725C247.3 150.912 247.409 151.143 247.427 151.419C247.445 151.696 247.367 151.937 247.191 152.145C247.02 152.355 246.803 152.469 246.541 152.486C246.282 152.502 246.053 152.418 245.852 152.231C245.655 152.048 245.548 151.819 245.53 151.542Z" fill="black"/>
<path d="M235.968 163.357C236.022 162.553 236.239 161.871 236.622 161.313C237.007 160.758 237.524 160.344 238.172 160.07C238.823 159.8 239.573 159.693 240.419 159.749C241.256 159.805 241.982 160.01 242.6 160.364C243.216 160.721 243.685 161.194 244.006 161.781C244.326 162.371 244.461 163.046 244.411 163.804C244.38 164.265 244.275 164.706 244.093 165.128C243.912 165.551 243.648 165.923 243.299 166.245C242.95 166.567 242.509 166.81 241.975 166.974C241.444 167.138 240.809 167.196 240.068 167.147L239.505 167.109L239.935 160.62L241.125 160.698L240.798 165.631C241.217 165.658 241.592 165.598 241.926 165.449C242.263 165.301 242.536 165.079 242.744 164.783C242.952 164.49 243.07 164.139 243.097 163.728C243.127 163.281 243.043 162.884 242.845 162.537C242.651 162.193 242.384 161.919 242.046 161.715C241.71 161.515 241.339 161.401 240.931 161.374L240.001 161.313C239.455 161.276 238.985 161.341 238.589 161.507C238.194 161.677 237.883 161.929 237.658 162.262C237.437 162.596 237.311 162.996 237.28 163.46C237.26 163.761 237.285 164.038 237.353 164.292C237.425 164.546 237.542 164.769 237.704 164.961C237.866 165.153 238.071 165.306 238.32 165.418L237.949 166.905C237.514 166.755 237.14 166.513 236.828 166.179C236.519 165.849 236.287 165.444 236.134 164.964C235.984 164.488 235.929 163.952 235.968 163.357Z" fill="black"/>
<path d="M234.024 175.372C234.201 174.6 234.528 173.976 235.006 173.499C235.486 173.026 236.07 172.712 236.757 172.556C237.445 172.401 238.189 172.415 238.989 172.598C239.798 172.784 240.478 173.1 241.028 173.547C241.581 173.995 241.969 174.536 242.191 175.17C242.414 175.804 242.439 176.496 242.267 177.247C242.128 177.853 241.891 178.367 241.557 178.79C241.227 179.213 240.828 179.524 240.36 179.723C239.891 179.925 239.381 179.992 238.832 179.924L239.179 178.413C239.572 178.416 239.937 178.299 240.276 178.064C240.613 177.831 240.839 177.468 240.952 176.973C241.052 176.54 241.024 176.135 240.871 175.757C240.719 175.384 240.455 175.059 240.078 174.783C239.704 174.508 239.233 174.305 238.665 174.175C238.084 174.041 237.561 174.014 237.099 174.094C236.636 174.173 236.252 174.348 235.946 174.616C235.639 174.888 235.436 175.244 235.335 175.684C235.267 175.978 235.26 176.257 235.312 176.52C235.367 176.788 235.478 177.027 235.645 177.236C235.811 177.449 236.031 177.621 236.303 177.753L235.956 179.264C235.453 179.09 235.031 178.817 234.691 178.443C234.35 178.07 234.118 177.622 233.994 177.098C233.869 176.577 233.879 176.002 234.024 175.372Z" fill="black"/>
<path d="M237.831 190.803L236.638 190.344L238.246 186.174L239.439 186.633L237.831 190.803ZM240.837 188.457L240.264 189.943L233.042 187.159C232.754 187.048 232.52 187.007 232.341 187.037C232.165 187.069 232.025 187.142 231.919 187.257C231.816 187.377 231.733 187.518 231.671 187.681C231.625 187.8 231.593 187.908 231.575 188.004C231.557 188.099 231.543 188.174 231.534 188.228L230.203 188.023C230.203 187.924 230.217 187.789 230.245 187.617C230.27 187.444 230.327 187.237 230.416 186.997C230.56 186.604 230.77 186.266 231.046 185.984C231.322 185.703 231.653 185.516 232.038 185.425C232.423 185.334 232.846 185.377 233.307 185.554L240.837 188.457Z" fill="black"/>
<path d="M228.175 208.243L227.117 207.526L229.624 203.826L230.682 204.544L228.175 208.243ZM231.633 206.635L230.739 207.954L224.332 203.612C224.076 203.438 223.858 203.346 223.677 203.335C223.499 203.326 223.345 203.365 223.217 203.454C223.089 203.548 222.976 203.666 222.878 203.81C222.807 203.916 222.751 204.014 222.712 204.103C222.673 204.192 222.643 204.262 222.622 204.312L221.371 203.812C221.394 203.716 221.438 203.587 221.504 203.426C221.568 203.263 221.67 203.075 221.81 202.861C222.039 202.51 222.32 202.229 222.653 202.017C222.985 201.804 223.35 201.697 223.746 201.695C224.142 201.694 224.544 201.831 224.952 202.108L231.633 206.635Z" fill="black"/>
<path d="M215.251 210.924C215.77 210.359 216.353 209.985 216.999 209.803C217.645 209.62 218.307 209.626 218.986 209.821C219.665 210.017 220.316 210.4 220.938 210.973C221.563 211.547 222.002 212.166 222.256 212.829C222.51 213.492 222.573 214.153 222.444 214.812C222.316 215.47 221.992 216.082 221.473 216.647C220.954 217.211 220.371 217.585 219.725 217.768C219.079 217.95 218.416 217.943 217.734 217.745C217.052 217.547 216.399 217.161 215.774 216.587C215.152 216.015 214.715 215.398 214.464 214.738C214.213 214.077 214.151 213.417 214.28 212.759C214.408 212.1 214.732 211.488 215.251 210.924ZM216.232 211.833C215.895 212.199 215.713 212.591 215.685 213.009C215.657 213.427 215.751 213.842 215.967 214.253C216.18 214.666 216.48 215.051 216.867 215.406C217.251 215.76 217.658 216.026 218.088 216.204C218.518 216.387 218.941 216.448 219.359 216.388C219.776 216.328 220.153 216.115 220.489 215.749C220.828 215.38 221.011 214.984 221.039 214.561C221.064 214.14 220.969 213.722 220.753 213.306C220.537 212.896 220.237 212.514 219.853 212.16C219.466 211.804 219.059 211.536 218.632 211.355C218.202 211.177 217.78 211.12 217.366 211.182C216.949 211.247 216.571 211.464 216.232 211.833Z" fill="black"/>
<path d="M199.693 231.536L200.781 230.553C200.93 230.677 201.104 230.775 201.304 230.847C201.501 230.921 201.721 230.944 201.964 230.917C202.208 230.891 202.469 230.79 202.749 230.615C203.131 230.375 203.396 230.09 203.545 229.758C203.695 229.429 203.686 229.131 203.519 228.863C203.373 228.631 203.171 228.498 202.911 228.464C202.65 228.43 202.301 228.488 201.862 228.637L200.602 229.074C199.872 229.326 199.254 229.397 198.749 229.286C198.244 229.175 197.837 228.874 197.53 228.384C197.27 227.968 197.159 227.523 197.196 227.047C197.232 226.576 197.406 226.115 197.718 225.664C198.028 225.214 198.462 224.814 199.022 224.464C199.799 223.977 200.536 223.746 201.234 223.77C201.933 223.797 202.531 224.082 203.027 224.627L201.847 225.642C201.553 225.353 201.225 225.2 200.862 225.184C200.502 225.171 200.119 225.292 199.713 225.546C199.27 225.823 198.974 226.136 198.824 226.486C198.676 226.838 198.686 227.149 198.854 227.416C198.99 227.633 199.185 227.764 199.44 227.81C199.692 227.857 200.007 227.815 200.385 227.683L201.72 227.205C202.459 226.947 203.085 226.883 203.596 227.01C204.105 227.14 204.514 227.452 204.823 227.945C205.079 228.355 205.189 228.784 205.153 229.235C205.116 229.685 204.95 230.122 204.655 230.546C204.361 230.973 203.953 231.35 203.433 231.676C202.683 232.145 201.992 232.352 201.358 232.297C200.726 232.244 200.171 231.991 199.693 231.536Z" fill="black"/>
<path d="M190.375 238.332L189.857 237.163L193.943 235.352L194.461 236.521L190.375 238.332ZM194.16 238.798L192.704 239.444L189.567 232.368C189.442 232.086 189.306 231.892 189.158 231.786C189.012 231.684 188.86 231.636 188.704 231.643C188.546 231.655 188.388 231.696 188.229 231.767C188.112 231.819 188.013 231.872 187.933 231.927C187.852 231.982 187.79 232.026 187.746 232.057L186.949 230.971C187.019 230.901 187.125 230.815 187.267 230.713C187.407 230.609 187.593 230.503 187.825 230.396C188.205 230.22 188.593 230.13 188.987 230.126C189.382 230.122 189.747 230.224 190.084 230.432C190.421 230.64 190.69 230.969 190.89 231.421L194.16 238.798Z" fill="black"/>
<path d="M179 233.463C179.499 233.323 179.977 233.288 180.432 233.358C180.888 233.433 181.284 233.614 181.62 233.903C181.953 234.193 182.192 234.596 182.338 235.112C182.463 235.557 182.481 235.946 182.391 236.282C182.301 236.617 182.134 236.909 181.891 237.159C181.648 237.408 181.359 237.626 181.024 237.813C180.689 237.999 180.342 238.168 179.982 238.317C179.526 238.505 179.155 238.657 178.871 238.774C178.588 238.895 178.391 239.015 178.281 239.134C178.171 239.254 178.142 239.406 178.194 239.591L178.204 239.627C178.33 240.074 178.554 240.386 178.877 240.56C179.196 240.736 179.603 240.754 180.098 240.614C180.615 240.469 180.989 240.239 181.222 239.927C181.452 239.618 181.585 239.31 181.619 239.001L183.152 238.923C183.116 239.449 182.976 239.906 182.731 240.292C182.483 240.683 182.163 241.006 181.77 241.261C181.377 241.519 180.944 241.715 180.469 241.849C180.154 241.938 179.811 241.994 179.437 242.018C179.062 242.047 178.693 242.007 178.33 241.899C177.964 241.792 177.631 241.585 177.33 241.279C177.031 240.976 176.8 240.537 176.638 239.963L175.163 234.734L176.66 234.311L176.964 235.388L177.026 235.371C177.069 235.145 177.163 234.908 177.307 234.66C177.451 234.413 177.661 234.182 177.936 233.968C178.212 233.754 178.566 233.586 179 233.463ZM179.014 234.788C178.59 234.907 178.252 235.093 177.998 235.345C177.741 235.599 177.572 235.883 177.491 236.197C177.408 236.516 177.41 236.831 177.497 237.142L177.784 238.157C177.823 238.087 177.914 238.005 178.058 237.913C178.199 237.825 178.364 237.736 178.553 237.646C178.743 237.56 178.927 237.476 179.108 237.396C179.289 237.319 179.44 237.254 179.562 237.201C179.849 237.08 180.103 236.94 180.324 236.782C180.541 236.624 180.7 236.441 180.8 236.232C180.897 236.028 180.907 235.789 180.83 235.515C180.723 235.136 180.502 234.888 180.167 234.773C179.832 234.66 179.448 234.665 179.014 234.788Z" fill="black"/>
<path d="M168.972 235.898L170.053 244.008L168.527 244.212L168.356 242.924L168.271 242.935C168.181 243.391 167.967 243.769 167.627 244.069C167.284 244.372 166.875 244.556 166.4 244.619C166.301 244.632 166.185 244.644 166.05 244.655C165.912 244.666 165.803 244.672 165.724 244.672L165.523 243.162C165.589 243.171 165.704 243.175 165.869 243.175C166.034 243.178 166.197 243.168 166.359 243.147C166.732 243.097 167.055 242.973 167.326 242.776C167.594 242.583 167.793 242.336 167.925 242.035C168.058 241.738 168.1 241.414 168.053 241.062L167.393 236.109L168.972 235.898Z" fill="black"/>
<path d="M155.298 245.019L155.289 243.74L159.758 243.708L159.767 244.986L155.298 245.019ZM158.583 246.955L156.991 246.967L156.934 239.227C156.932 238.918 156.884 238.686 156.79 238.53C156.697 238.378 156.577 238.275 156.431 238.219C156.282 238.167 156.12 238.141 155.946 238.142C155.818 238.143 155.706 238.153 155.611 238.171C155.515 238.19 155.44 238.205 155.387 238.216L155.09 236.902C155.182 236.866 155.313 236.83 155.483 236.793C155.654 236.752 155.866 236.73 156.122 236.724C156.541 236.714 156.932 236.786 157.296 236.939C157.659 237.093 157.954 237.332 158.18 237.657C158.406 237.982 158.521 238.392 158.524 238.885L158.583 246.955Z" fill="black"/>
<path d="M140.821 232.107C141.052 232.163 141.258 232.233 141.438 232.317C141.62 232.397 141.752 232.469 141.835 232.533L141.156 233.712C140.891 233.567 140.647 233.473 140.424 233.43C140.2 233.387 139.985 233.423 139.778 233.537C139.568 233.651 139.355 233.868 139.139 234.188L138.819 234.67L139.779 243.43L138.122 243.029L137.602 236.37L137.519 236.35L134.011 242.034L132.349 241.631L137.808 233.411C138.061 233.034 138.339 232.73 138.643 232.501C138.948 232.267 139.28 232.118 139.639 232.051C139.999 231.985 140.393 232.003 140.821 232.107Z" fill="black"/>
<path d="M125.79 230.369C126.495 230.669 127.042 231.093 127.43 231.641C127.819 232.188 128.034 232.815 128.078 233.52C128.121 234.225 127.977 234.967 127.646 235.745C127.313 236.525 126.877 237.146 126.337 237.607C125.797 238.068 125.195 238.349 124.532 238.448C123.868 238.547 123.183 238.447 122.477 238.146C121.772 237.846 121.225 237.422 120.836 236.874C120.448 236.327 120.233 235.699 120.191 234.99C120.15 234.281 120.295 233.537 120.628 232.756C120.959 231.978 121.394 231.361 121.932 230.903C122.47 230.445 123.072 230.167 123.735 230.067C124.399 229.968 125.084 230.068 125.79 230.369ZM125.261 231.597C124.803 231.402 124.373 231.361 123.969 231.475C123.566 231.589 123.207 231.816 122.892 232.157C122.574 232.496 122.311 232.908 122.106 233.391C121.901 233.871 121.787 234.344 121.763 234.808C121.734 235.275 121.818 235.694 122.014 236.067C122.21 236.44 122.537 236.724 122.994 236.919C123.455 237.115 123.889 237.156 124.298 237.04C124.702 236.923 125.065 236.693 125.384 236.351C125.699 236.01 125.959 235.599 126.163 235.119C126.369 234.636 126.486 234.162 126.513 233.699C126.537 233.235 126.451 232.818 126.253 232.448C126.052 232.077 125.721 231.793 125.261 231.597Z" fill="black"/>
<path d="M110.432 226.102L107.857 230.14L106.51 229.28L110.909 222.382L112.23 223.224L111.468 224.419L111.54 224.465C111.933 224.197 112.384 224.053 112.89 224.031C113.392 224.01 113.902 224.164 114.42 224.495C114.864 224.777 115.194 225.125 115.411 225.537C115.623 225.95 115.704 226.412 115.652 226.923C115.597 227.431 115.388 227.97 115.026 228.539L112.227 232.926L110.885 232.07L113.58 227.844C113.879 227.374 113.988 226.917 113.905 226.472C113.822 226.027 113.573 225.672 113.156 225.407C112.905 225.247 112.615 225.15 112.286 225.117C111.954 225.083 111.625 225.14 111.298 225.29C110.968 225.437 110.679 225.708 110.432 226.102Z" fill="black"/>
<path d="M106.224 218.73L100.891 224.935L99.7237 223.931L100.571 222.946L100.506 222.89C100.106 223.127 99.6812 223.218 99.2313 223.164C98.7765 223.11 98.3673 222.927 98.0038 222.615C97.9284 222.55 97.8418 222.471 97.7441 222.377C97.6437 222.282 97.5674 222.204 97.5151 222.145L98.5081 220.99C98.545 221.045 98.6185 221.134 98.7285 221.257C98.8362 221.382 98.9519 221.498 99.0758 221.604C99.3613 221.85 99.6678 222.008 99.9955 222.079C100.318 222.15 100.636 222.135 100.948 222.033C101.258 221.934 101.528 221.75 101.76 221.481L105.017 217.692L106.224 218.73Z" fill="black"/>
<path d="M87.1165 210.623L86.1597 209.35L93.1265 204.115C93.5637 203.786 93.9925 203.588 94.4129 203.521C94.8311 203.451 95.2346 203.512 95.6233 203.704C96.0098 203.894 96.3727 204.214 96.7119 204.665C96.746 204.711 96.778 204.753 96.8079 204.793C96.8399 204.836 96.8715 204.881 96.9028 204.928L95.8084 205.751C95.7785 205.711 95.7519 205.676 95.7284 205.644C95.7071 205.616 95.6825 205.583 95.6548 205.546C95.4287 205.246 95.1846 205.089 94.9225 205.077C94.6611 205.06 94.3785 205.166 94.0748 205.394L87.1165 210.623ZM85.6337 210.751C85.8001 210.973 85.8692 211.218 85.841 211.488C85.8079 211.758 85.6877 211.97 85.4805 212.126C85.2704 212.284 85.0329 212.34 84.7679 212.295C84.498 212.249 84.2798 212.115 84.1134 211.894C83.947 211.672 83.8804 211.427 83.9135 211.158C83.9417 210.888 84.0608 210.674 84.2709 210.516C84.4781 210.36 84.7167 210.305 84.9867 210.351C85.2516 210.397 85.4673 210.53 85.6337 210.751Z" fill="black"/>
<path d="M87.4793 196.012C87.8522 196.682 88.0241 197.352 87.9949 198.023C87.9657 198.693 87.7518 199.32 87.3531 199.904C86.9545 200.487 86.3859 200.985 85.6473 201.396C84.9057 201.808 84.1803 202.031 83.4712 202.064C82.7621 202.097 82.1149 201.949 81.5297 201.62C80.9445 201.292 80.4654 200.792 80.0924 200.122C79.7195 199.452 79.5476 198.781 79.5768 198.111C79.606 197.44 79.8215 196.812 80.2232 196.227C80.625 195.642 81.1967 195.143 81.9383 194.73C82.6769 194.319 83.3991 194.098 84.1052 194.067C84.8112 194.036 85.4568 194.185 86.042 194.513C86.6272 194.842 87.1063 195.341 87.4793 196.012ZM86.3084 196.657C86.0666 196.223 85.7515 195.927 85.363 195.769C84.9745 195.611 84.5515 195.57 84.0938 195.646C83.6344 195.719 83.1751 195.883 82.7159 196.139C82.2597 196.392 81.8797 196.695 81.5757 197.047C81.2669 197.398 81.0755 197.781 81.0017 198.196C80.9278 198.611 81.0117 199.035 81.2535 199.47C81.497 199.907 81.8153 200.206 82.2087 200.365C82.6002 200.521 83.0273 200.562 83.4898 200.487C83.9474 200.411 84.4043 200.246 84.8605 199.993C85.3197 199.737 85.7022 199.435 86.0079 199.086C86.3119 198.734 86.4992 198.351 86.57 197.938C86.6391 197.522 86.5518 197.095 86.3084 196.657Z" fill="black"/>
<path d="M77.9686 183.222L73.4583 184.831L72.9213 183.326L80.6274 180.577L81.1537 182.051L79.8191 182.528L79.8478 182.608C80.3224 182.638 80.7667 182.8 81.1805 183.094C81.5899 183.385 81.8978 183.82 82.1042 184.399C82.2808 184.894 82.3284 185.371 82.247 185.83C82.1611 186.286 81.9412 186.7 81.5873 187.072C81.2322 187.44 80.7369 187.737 80.1014 187.964L75.1998 189.712L74.6647 188.212L79.3857 186.528C79.9108 186.341 80.2769 186.046 80.4842 185.644C80.6914 185.242 80.7121 184.809 80.5463 184.344C80.446 184.063 80.2762 183.809 80.0366 183.581C79.7959 183.35 79.5006 183.194 79.1507 183.111C78.7996 183.025 78.4055 183.062 77.9686 183.222Z" fill="black"/>
<path d="M79.1674 174.819L71.1492 176.447L70.8429 174.938L72.1166 174.68L72.0996 174.596C71.6384 174.538 71.2468 174.349 70.9248 174.03C70.5986 173.709 70.3878 173.313 70.2924 172.843C70.2726 172.746 70.2528 172.63 70.2329 172.497C70.2123 172.359 70.1994 172.252 70.1943 172.173L71.6873 171.87C71.6826 171.936 71.6861 172.051 71.6977 172.215C71.7058 172.38 71.7262 172.543 71.7587 172.703C71.8336 173.072 71.9787 173.385 72.194 173.642C72.405 173.896 72.665 174.079 72.9738 174.19C73.2792 174.302 73.6059 174.323 73.9539 174.252L78.8504 173.258L79.1674 174.819Z" fill="black"/>
<path d="M72.6065 163.723L77.4563 163.441L77.5486 165.031L69.3806 165.505L69.2919 163.979L70.6214 163.902L70.6155 163.801C70.1721 163.638 69.8075 163.364 69.5219 162.979C69.2361 162.59 69.0754 162.089 69.0398 161.475C69.0074 160.919 69.0961 160.425 69.3058 159.993C69.5119 159.561 69.837 159.217 70.2809 158.96C70.7248 158.703 71.2836 158.554 71.9572 158.515L77.1526 158.214L77.245 159.804L72.241 160.094C71.6489 160.129 71.1953 160.31 70.8799 160.637C70.5611 160.965 70.4173 161.399 70.4486 161.938C70.47 162.306 70.5688 162.63 70.745 162.908C70.921 163.182 71.1681 163.394 71.4862 163.542C71.8005 163.688 72.174 163.748 72.6065 163.723Z" fill="black"/>
<path d="M77.8477 148.869C77.7661 149.671 77.5245 150.344 77.1229 150.889C76.718 151.429 76.187 151.825 75.5297 152.076C74.8692 152.323 74.1168 152.403 73.2724 152.317C72.4386 152.233 71.7196 152.002 71.1153 151.627C70.5114 151.248 70.0596 150.759 69.7599 150.161C69.4606 149.559 69.3494 148.881 69.4263 148.125C69.473 147.665 69.5943 147.228 69.79 146.812C69.9858 146.397 70.2636 146.034 70.6235 145.725C70.9834 145.415 71.4331 145.188 71.9725 145.043C72.5085 144.897 73.1456 144.862 73.884 144.937L74.4457 144.994L73.7875 151.465L72.6004 151.344L73.1007 146.426C72.6838 146.384 72.306 146.431 71.9673 146.568C71.625 146.705 71.3446 146.917 71.1261 147.205C70.9079 147.49 70.778 147.837 70.7363 148.247C70.691 148.692 70.761 149.092 70.9463 149.446C71.1284 149.797 71.3851 150.08 71.7165 150.296C72.0448 150.508 72.4121 150.634 72.8183 150.676L73.7457 150.77C74.2898 150.825 74.7623 150.777 75.1633 150.625C75.5646 150.47 75.8835 150.229 76.1201 149.903C76.3532 149.577 76.4933 149.183 76.5404 148.72C76.5709 148.42 76.5564 148.141 76.4968 147.885C76.4336 147.629 76.3246 147.402 76.1698 147.204C76.0151 147.007 75.8153 146.847 75.5707 146.726L75.9935 145.254C76.4229 145.419 76.7878 145.673 77.0883 146.018C77.3856 146.359 77.6024 146.772 77.7386 147.257C77.8717 147.738 77.9081 148.275 77.8477 148.869Z" fill="black"/>
<path d="M82.3425 139.634C82.2811 139.864 82.2064 140.068 82.1183 140.247C82.0336 140.426 81.9583 140.557 81.8925 140.638L80.7304 139.931C80.881 139.67 80.9804 139.428 81.0287 139.206C81.0771 138.984 81.0464 138.768 80.9369 138.559C80.8283 138.346 80.6164 138.128 80.3012 137.904L79.8271 137.573L71.0471 138.328L71.4866 136.682L78.1556 136.317L78.1776 136.234L72.5772 132.595L73.0181 130.943L81.1089 136.592C81.4803 136.853 81.7773 137.138 81.9998 137.447C82.2257 137.758 82.3677 138.093 82.4257 138.454C82.4838 138.815 82.456 139.208 82.3425 139.634Z" fill="black"/>
<circle cx="87.7063" cy="112.7" r="1.71029" transform="rotate(-45 87.7063 112.7)" fill="black"/>
</svg>
