<svg width="220" height="207" viewBox="0 0 220 207" fill="none" xmlns="http://www.w3.org/2000/svg">
<path d="M219.5 35.0606C219.5 39.6728 216.567 44.1547 211.055 48.3085C205.551 52.4559 197.555 56.2123 187.63 59.3758C167.785 65.701 140.339 69.6212 110 69.6212C79.6613 69.6212 52.2149 65.701 32.3701 59.3758C22.4448 56.2123 14.449 52.4559 8.94526 48.3085C3.43308 44.1547 0.5 39.6728 0.5 35.0606C0.5 30.4485 3.43308 25.9666 8.94526 21.8128C14.449 17.6653 22.4448 13.9089 32.3701 10.7454C52.2149 4.42021 79.6613 0.5 110 0.5C140.339 0.5 167.785 4.42021 187.63 10.7454C197.555 13.9089 205.551 17.6653 211.055 21.8128C216.567 25.9666 219.5 30.4485 219.5 35.0606Z" stroke="black"/>
<path d="M219.5 69.1817C219.5 73.7939 216.567 78.2757 211.055 82.4296C205.551 86.577 197.555 90.3334 187.63 93.4969C167.785 99.8221 140.339 103.742 110 103.742C79.6613 103.742 52.2149 99.8221 32.3701 93.4969C22.4448 90.3334 14.449 86.577 8.94526 82.4296C3.43308 78.2757 0.5 73.7939 0.5 69.1817C0.5 64.5695 3.43308 60.0877 8.94526 55.9338C14.449 51.7864 22.4448 48.03 32.3701 44.8665C52.2149 38.5413 79.6613 34.6211 110 34.6211C140.339 34.6211 167.785 38.5413 187.63 44.8665C197.555 48.03 205.551 51.7864 211.055 55.9338C216.567 60.0877 219.5 64.5695 219.5 69.1817Z" stroke="black"/>
<path d="M219.5 103.303C219.5 107.915 216.567 112.397 211.055 116.551C205.551 120.698 197.555 124.455 187.63 127.618C167.785 133.943 140.339 137.864 110 137.864C79.6613 137.864 52.2149 133.943 32.3701 127.618C22.4448 124.455 14.449 120.698 8.94526 116.551C3.43308 112.397 0.5 107.915 0.5 103.303C0.5 98.6909 3.43308 94.209 8.94526 90.0552C14.449 85.9077 22.4448 82.1513 32.3701 78.9878C52.2149 72.6626 79.6613 68.7424 110 68.7424C140.339 68.7424 167.785 72.6626 187.63 78.9878C197.555 82.1513 205.551 85.9077 211.055 90.0552C216.567 94.209 219.5 98.6909 219.5 103.303Z" stroke="black"/>
<path d="M219.5 137.424C219.5 142.037 216.567 146.518 211.055 150.672C205.551 154.82 197.555 158.576 187.63 161.74C167.785 168.065 140.339 171.985 110 171.985C79.6613 171.985 52.2149 168.065 32.3701 161.74C22.4448 158.576 14.449 154.82 8.94526 150.672C3.43308 146.518 0.5 142.037 0.5 137.424C0.5 132.812 3.43308 128.33 8.94526 124.177C14.449 120.029 22.4448 116.273 32.3701 113.109C52.2149 106.784 79.6613 102.864 110 102.864C140.339 102.864 167.785 106.784 187.63 113.109C197.555 116.273 205.551 120.029 211.055 124.177C216.567 128.33 219.5 132.812 219.5 137.424Z" stroke="black"/>
<path d="M219.5 171.545C219.5 176.158 216.567 180.64 211.055 184.793C205.551 188.941 197.555 192.697 187.63 195.861C167.785 202.186 140.339 206.106 110 206.106C79.6613 206.106 52.2149 202.186 32.3701 195.861C22.4448 192.697 14.449 188.941 8.94526 184.793C3.43308 180.64 0.5 176.158 0.5 171.545C0.5 166.933 3.43308 162.451 8.94526 158.298C14.449 154.15 22.4448 150.394 32.3701 147.23C52.2149 140.905 79.6613 136.985 110 136.985C140.339 136.985 167.785 140.905 187.63 147.23C197.555 150.394 205.551 154.15 211.055 158.298C216.567 162.451 219.5 166.933 219.5 171.545Z" stroke="black"/>
</svg>
