<svg width="33" height="33" viewBox="0 0 33 33" fill="none" xmlns="http://www.w3.org/2000/svg">
<rect x="0.5" y="0.5" width="32" height="32" rx="16" stroke="black"/>
<path d="M17.2461 11.3284C17.2461 11.0522 17.0222 10.8284 16.7461 10.8284C16.47 10.8284 16.2461 11.0522 16.2461 11.3284L17.2461 11.3284ZM16.3925 22.0252C16.5878 22.2205 16.9044 22.2205 17.0996 22.0252L20.2816 18.8432C20.4769 18.648 20.4769 18.3314 20.2816 18.1361C20.0864 17.9409 19.7698 17.9409 19.5745 18.1361L16.7461 20.9645L13.9177 18.1361C13.7224 17.9409 13.4058 17.9409 13.2106 18.1361C13.0153 18.3314 13.0153 18.648 13.2106 18.8432L16.3925 22.0252ZM16.2461 11.3284L16.2461 21.6717L17.2461 21.6717L17.2461 11.3284L16.2461 11.3284Z" fill="black"/>
</svg>
