<svg width="60" height="60" viewBox="0 0 60 60" fill="none" xmlns="http://www.w3.org/2000/svg">
<rect width="60" height="60" rx="30" fill="#6FC9FF" fill-opacity="0.7"/>
<path d="M29.9961 21.7363C25.4415 21.7363 21.7324 25.4454 21.7324 30C21.7324 34.5545 25.4415 38.2636 29.9961 38.2636C34.5597 38.2636 38.2688 34.5545 38.2688 30C38.2688 25.4454 34.5597 21.7363 29.9961 21.7363ZM29.9961 33.3454C29.1223 33.325 28.2912 32.9636 27.6804 32.3385C27.0696 31.7133 26.7277 30.874 26.7277 30C26.7277 29.126 27.0696 28.2866 27.6804 27.6615C28.2912 27.0363 29.1223 26.6749 29.9961 26.6545C31.8415 26.6545 33.3415 28.1545 33.3415 30C33.3415 31.8454 31.8415 33.3454 29.9961 33.3454Z" fill="#4E4DC9"/>
<path d="M55.9237 28.5546C41.6328 14.2636 18.3692 14.2636 4.06918 28.5546L2.63281 30.0091L4.07827 31.4455C11.2237 38.5909 20.6146 42.1636 29.9964 42.1636C39.3874 42.1636 48.7783 38.5909 55.9237 31.4455L57.3601 30.0091L55.9237 28.5546V28.5546ZM29.9964 40.0818C24.4419 40.0818 19.9146 35.5636 19.9146 30C19.9146 24.4364 24.4419 19.9182 29.9964 19.9182C35.5601 19.9182 40.0874 24.4364 40.0874 30C40.0874 35.5636 35.5601 40.0818 29.9964 40.0818ZM23.2983 13.9591L21.6683 11.7718L23.1264 10.6855L24.7555 12.8727L23.2983 13.9591ZM20.0392 9.58547L18.4101 7.39819L19.8674 6.31183L21.4964 8.4991L20.0392 9.58547ZM30.9092 12.7636H29.091V10.4909H30.9092V12.7636ZM30.9092 7.76365H29.091V5.03638H30.9092V7.76365ZM36.7028 13.9591L35.2446 12.8727L36.8746 10.6855L38.3319 11.7718L36.7028 13.9591ZM39.9619 9.58547L38.5037 8.4991L40.1328 6.31183L41.591 7.39819L39.9619 9.58547ZM40.1337 53.6882L38.5037 51.5009L39.9619 50.4146L41.591 52.6018L40.1337 53.6882ZM36.8746 49.3155L35.2446 47.1273L36.7028 46.0409L38.3319 48.2282L36.8746 49.3146V49.3155ZM30.9092 54.9618H29.091V52.2346H30.9092V54.9618ZM30.9092 49.5073H29.091V47.2346H30.9092V49.5073ZM19.8674 53.6873L18.4101 52.6009L20.0392 50.4136L21.4964 51.5L19.8674 53.6873ZM23.1264 49.3146L21.6692 48.2273L23.2983 46.04L24.7555 47.1264L23.1264 49.3136V49.3146Z" fill="#4E4DC9"/>
</svg>
