<svg width="40" height="40" viewBox="0 0 40 40" fill="none" xmlns="http://www.w3.org/2000/svg">
<rect x="0.5" y="0.5" width="39" height="39" rx="19.5" stroke="black"/>
<path d="M20.7983 13.7314C20.7983 13.4553 20.5745 13.2314 20.2983 13.2314C20.0222 13.2314 19.7983 13.4553 19.7983 13.7314L20.7983 13.7314ZM19.9448 26.6223C20.14 26.8176 20.4566 26.8176 20.6519 26.6223L23.8339 23.4403C24.0291 23.2451 24.0291 22.9285 23.8339 22.7332C23.6386 22.538 23.322 22.538 23.1268 22.7332L20.2983 25.5617L17.4699 22.7332C17.2747 22.538 16.9581 22.538 16.7628 22.7332C16.5675 22.9285 16.5675 23.2451 16.7628 23.4403L19.9448 26.6223ZM19.7983 13.7314L19.7983 26.2688L20.7983 26.2688L20.7983 13.7314L19.7983 13.7314Z" fill="black"/>
</svg>
