<svg width="24" height="24" viewBox="0 0 24 24" fill="none" xmlns="http://www.w3.org/2000/svg">
<rect width="24" height="22.279" rx="11.1395" transform="matrix(-1 0 0 1 24 0.769043)" fill="#86EDA9"/>
<path d="M17 11.6187C17.2761 11.6187 17.5 11.8425 17.5 12.1187C17.5 12.3948 17.2761 12.6187 17 12.6187V11.6187ZM7.64645 12.4722C7.45118 12.2769 7.45118 11.9604 7.64645 11.7651L10.8284 8.58312C11.0237 8.38786 11.3403 8.38786 11.5355 8.58312C11.7308 8.77838 11.7308 9.09496 11.5355 9.29023L8.70711 12.1187L11.5355 14.9471C11.7308 15.1423 11.7308 15.4589 11.5355 15.6542C11.3403 15.8494 11.0237 15.8494 10.8284 15.6542L7.64645 12.4722ZM17 12.6187H8V11.6187H17V12.6187Z" fill="black"/>
</svg>
