<svg width="67" height="67" viewBox="0 0 67 67" fill="none" xmlns="http://www.w3.org/2000/svg">
<rect x="0.5" y="0.5" width="66" height="66" rx="33" stroke="black"/>
<path d="M34.5 23C34.5 22.7239 34.2761 22.5 34 22.5C33.7239 22.5 33.5 22.7239 33.5 23L34.5 23ZM33.6464 44.3536C33.8417 44.5488 34.1583 44.5488 34.3536 44.3536L37.5355 41.1716C37.7308 40.9763 37.7308 40.6597 37.5355 40.4645C37.3403 40.2692 37.0237 40.2692 36.8284 40.4645L34 43.2929L31.1716 40.4645C30.9763 40.2692 30.6597 40.2692 30.4645 40.4645C30.2692 40.6597 30.2692 40.9763 30.4645 41.1716L33.6464 44.3536ZM33.5 23L33.5 44L34.5 44L34.5 23L33.5 23Z" fill="black"/>
</svg>
