<svg width="20" height="20" viewBox="0 0 20 20" fill="none" xmlns="http://www.w3.org/2000/svg">
<path fill-rule="evenodd" clip-rule="evenodd" d="M4.81199 3.15325C4.81199 4.19084 4.02196 5.03053 2.78648 5.03053C1.59914 5.03053 0.80911 4.19084 0.83356 3.15325C0.80911 2.06524 1.59912 1.25 2.81015 1.25C4.02194 1.25 4.78831 2.06524 4.81199 3.15325ZM0.932891 18.5993V6.51355H4.68897V18.5986H0.932891V18.5993Z" fill="#111827"/>
<path fill-rule="evenodd" clip-rule="evenodd" d="M7.69992 10.3705C7.69992 8.86301 7.65025 7.57787 7.60059 6.51507H10.8631L11.0365 8.17078H11.1106C11.605 7.40443 12.8405 6.24384 14.8423 6.24384C17.3132 6.24384 19.1669 7.87509 19.1669 11.4325V18.6009H15.4107V11.9032C15.4107 10.3453 14.8675 9.28323 13.5083 9.28323C12.4699 9.28323 11.8526 9.99992 11.6058 10.6914C11.5064 10.9389 11.4575 11.2843 11.4575 11.6312V18.6009H7.70143V10.3705H7.69992Z" fill="#111827"/>
</svg>
