<svg width="152" height="193" viewBox="0 0 152 193" fill="none" xmlns="http://www.w3.org/2000/svg">
<path d="M122 95.5002C122 128.913 94.9132 156 61.5 156C28.0868 156 1 128.913 1 95.5002C1 62.087 28.0868 35.0002 61.5 35.0002C94.9132 35.0002 122 62.087 122 95.5002Z" fill="#86EDA9"/>
<path d="M70 95C69.4477 95 69 95.4477 69 96C69 96.5523 69.4477 97 70 97L70 95ZM91.7071 96.7071C92.0976 96.3166 92.0976 95.6834 91.7071 95.2929L85.3431 88.9289C84.9526 88.5384 84.3195 88.5384 83.9289 88.9289C83.5384 89.3195 83.5384 89.9526 83.9289 90.3431L89.5858 96L83.9289 101.657C83.5384 102.047 83.5384 102.681 83.9289 103.071C84.3195 103.462 84.9526 103.462 85.3431 103.071L91.7071 96.7071ZM70 97L91 97L91 95L70 95L70 97Z" fill="black"/>
<path d="M9.67628 25.0879C9.31428 25.3236 8.93696 25.4882 8.54432 25.5816C8.15503 25.6729 7.77344 25.666 7.39957 25.561C7.02905 25.4539 6.69255 25.2267 6.39006 24.8795L7.35036 24.2541C7.52273 24.4235 7.71181 24.5342 7.91761 24.5864C8.12458 24.633 8.33428 24.6325 8.5467 24.5848C8.76029 24.5316 8.96596 24.4406 9.16372 24.3118C9.49219 24.0979 9.71879 23.8668 9.84349 23.6185C9.96937 23.3647 9.95154 23.1138 9.79 22.8657C9.6743 22.6881 9.52622 22.5816 9.34576 22.5464C9.16864 22.509 8.9464 22.5416 8.67903 22.6441L7.48287 23.0723C6.98835 23.2511 6.54109 23.3157 6.14111 23.2659C5.73895 23.2128 5.40739 22.9895 5.14645 22.5962C4.94781 22.2912 4.8464 21.9706 4.84225 21.6344C4.84144 21.296 4.94821 20.9615 5.16256 20.631C5.37472 20.2971 5.70538 19.9839 6.15452 19.6914C6.74109 19.3093 7.29716 19.1334 7.82272 19.1634C8.34828 19.1935 8.77931 19.4521 9.11579 19.9395L8.18566 20.5453C7.99715 20.3291 7.76706 20.214 7.49539 20.2C7.22489 20.1805 6.94049 20.2678 6.64218 20.4621C6.33381 20.663 6.12113 20.8898 6.00414 21.1426C5.88497 21.392 5.90725 21.6425 6.07097 21.8939C6.1823 22.0648 6.34277 22.1536 6.55239 22.1603C6.75982 22.1636 7.02841 22.1033 7.35814 21.9792L8.50402 21.5838C8.80242 21.4849 9.06976 21.4373 9.30603 21.441C9.54013 21.4413 9.74667 21.4762 9.92565 21.5458C10.1046 21.6154 10.2584 21.7086 10.387 21.8254C10.5189 21.9399 10.6252 22.0592 10.706 22.1833C10.9199 22.5117 11.0195 22.8479 11.0047 23.1916C10.9911 23.5299 10.8716 23.8631 10.6461 24.1913C10.4219 24.514 10.0986 24.8128 9.67628 25.0879Z" fill="#86EDA9"/>
<path d="M18.4507 20.1071C18.1691 20.2414 17.8815 20.3319 17.5878 20.3785C17.2942 20.4251 17.008 20.419 16.7292 20.3602C16.4541 20.2996 16.1999 20.1818 15.9665 20.007C15.7368 19.8303 15.5459 19.5877 15.3938 19.2792L13.5239 15.4849L14.681 14.9147L16.4899 18.5851C16.6544 18.9188 16.8919 19.1384 17.2026 19.244C17.5132 19.3495 17.8784 19.2988 18.2982 19.0919C18.6786 18.9045 18.9349 18.6555 19.0673 18.345C19.1979 18.0309 19.1686 17.6819 18.9794 17.298L17.1943 13.676L18.3407 13.111L21.0832 18.6759L20.1898 19.1162L19.5302 18.1035C19.6088 18.426 19.6072 18.7166 19.5252 18.9756C19.445 19.2291 19.3096 19.452 19.1188 19.6441C18.9299 19.8308 18.7072 19.9852 18.4507 20.1071Z" fill="#86EDA9"/>
<path d="M28.5824 15.9207C28.2536 16.0346 27.9589 16.088 27.6982 16.081C27.4375 16.074 27.208 16.0286 27.0097 15.9449C26.8151 15.8599 26.6482 15.7569 26.5089 15.6358C26.3734 15.5135 26.2606 15.3959 26.1708 15.2831L26.4568 16.5302L25.5441 16.8465L22.625 8.42185L23.8495 7.99754L25.0459 11.4502C25.0634 11.3298 25.1029 11.1933 25.1644 11.0408C25.2296 10.887 25.322 10.7322 25.4416 10.5764C25.565 10.4194 25.7195 10.2727 25.9051 10.1364C26.0907 10.0001 26.3139 9.88683 26.5747 9.79646C27.3041 9.54371 27.9715 9.60035 28.5767 9.96638C29.1856 10.3311 29.6604 11.0048 30.0009 11.9875C30.2156 12.6073 30.3103 13.1799 30.2849 13.7052C30.2582 14.2267 30.1041 14.6801 29.8228 15.0654C29.5439 15.4457 29.1305 15.7308 28.5824 15.9207ZM28.028 15.0904C28.474 14.9359 28.7766 14.6363 28.9358 14.1917C29.0988 13.7457 29.0467 13.1372 28.7796 12.3662C28.5491 11.701 28.2406 11.2385 27.8543 10.9787C27.4717 10.7176 27.0328 10.6728 26.5377 10.8443C26.1825 10.9674 25.9208 11.147 25.7528 11.383C25.5835 11.6152 25.499 11.9027 25.4993 12.2455C25.5033 12.587 25.58 12.9796 25.7295 13.4231C26.0006 14.2054 26.3166 14.7267 26.6777 14.9868C27.0375 15.2432 27.4876 15.2777 28.028 15.0904Z" fill="#86EDA9"/>
<path d="M35.9538 13.577L34.7863 7.48385L36.012 7.249L36.1802 8.12703C36.3019 7.82677 36.4932 7.54982 36.7541 7.29619C37.0143 7.03862 37.3801 6.86468 37.8515 6.77435C38.0715 6.7322 38.3006 6.72699 38.5389 6.75873C38.781 6.78971 39.0107 6.86178 39.2279 6.97493C39.4482 7.08341 39.6341 7.23514 39.7855 7.43013C39.9223 7.10254 40.1341 6.81556 40.4208 6.56919C40.7076 6.32283 41.0513 6.16125 41.452 6.08448C41.6681 6.04308 41.8988 6.03553 42.1441 6.06183C42.3887 6.0842 42.625 6.15907 42.8531 6.28643C43.0843 6.40911 43.2883 6.60218 43.465 6.86563C43.6457 7.12832 43.7781 7.47967 43.8624 7.91967L44.628 11.915L43.361 12.1577L42.6215 8.29796C42.5575 7.96403 42.4505 7.7137 42.3004 7.54696C42.1543 7.37946 41.9837 7.27571 41.7887 7.23569C41.5968 7.19099 41.4007 7.18784 41.2004 7.22623C41.0197 7.26085 40.8379 7.33234 40.655 7.44069C40.4721 7.54904 40.3277 7.69889 40.2219 7.89023C40.116 8.08158 40.0901 8.31868 40.1443 8.60153L40.9155 12.6263L39.6544 12.8679L38.8629 8.73709C38.82 8.51316 38.723 8.33626 38.5719 8.20638C38.4247 8.07575 38.2535 7.99042 38.0585 7.95041C37.8667 7.90571 37.6824 7.9003 37.5056 7.93417C37.3092 7.97181 37.1203 8.04873 36.9389 8.16494C36.7575 8.28114 36.6162 8.43651 36.515 8.63103C36.417 8.82086 36.3932 9.04739 36.4436 9.3106L37.2148 13.3354L35.9538 13.577Z" fill="#86EDA9"/>
<path d="M50.3027 5.28737L50.7054 11.4783L49.4721 11.5585L49.0693 5.36761L50.3027 5.28737ZM50.1665 2.82501L50.2487 4.08834L48.9614 4.17209L48.8793 2.90876L50.1665 2.82501Z" fill="#86EDA9"/>
<path d="M60.4504 6.15271L59.059 6.1116L58.9557 9.81216C58.9497 10.0161 58.9652 10.1666 59.0024 10.2637C59.0436 10.357 59.1138 10.4191 59.213 10.45C59.3162 10.4771 59.4558 10.4932 59.6317 10.4984L60.3574 10.5199L60.3328 11.3535C60.2519 11.3831 60.1311 11.4076 59.9704 11.4268C59.8138 11.4462 59.6115 11.4522 59.3636 11.4449C58.9038 11.4313 58.5478 11.3588 58.2956 11.2273C58.0474 11.0959 57.8767 10.9128 57.7836 10.6779C57.6946 10.4392 57.655 10.1539 57.6648 9.82204L57.7756 6.07368L56.768 6.04391L56.7953 5.12031L57.8388 5.15114L58.2106 3.33733L59.1402 3.3648L59.0865 5.182L60.4779 5.22311L60.4504 6.15271Z" fill="#86EDA9"/>
<path d="M72.2087 14.9624C71.8378 14.88 71.5861 14.7954 71.4538 14.7086C71.3254 14.6228 71.2611 14.5798 71.2611 14.5798L71.4407 13.7715L72.0531 13.9198C72.2848 13.9836 72.4791 14.0124 72.6362 14.0063C72.7971 14.0011 72.9284 13.9729 73.0299 13.9216C73.1345 13.8752 73.2188 13.8181 73.283 13.7505C73.3472 13.6828 73.3984 13.6183 73.4366 13.5571L73.7372 13.0892L72.6828 6.68423L73.9362 6.96261L74.641 11.8148L77.3217 7.7145L78.5518 7.98768L74.6068 13.8232C74.3413 14.2067 74.0795 14.4907 73.8214 14.6752C73.5671 14.8604 73.3071 14.9707 73.0411 15.0059C72.7752 15.041 72.4977 15.0265 72.2087 14.9624Z" fill="#86EDA9"/>
<path d="M84.065 16.3489C83.5178 16.1566 83.0797 15.8712 82.7505 15.4927C82.4265 15.1117 82.2302 14.6569 82.1615 14.1283C82.0967 13.6009 82.1763 13.0184 82.4004 12.3806C82.6166 11.7655 82.9112 11.2649 83.2843 10.8787C83.6612 10.4939 84.0979 10.2467 84.5943 10.1371C85.092 10.0237 85.6296 10.0684 86.207 10.2713C86.758 10.4649 87.1929 10.7534 87.5118 11.1368C87.8321 11.5165 88.0227 11.9756 88.0835 12.5142C88.1457 13.0491 88.0628 13.6411 87.8347 14.2902C87.6265 14.8827 87.3372 15.3682 86.9667 15.7468C86.6 16.1267 86.1697 16.3741 85.6757 16.4888C85.1869 16.6011 84.65 16.5544 84.065 16.3489ZM84.3989 15.4169C84.731 15.5336 85.0388 15.5442 85.3225 15.4489C85.6113 15.3511 85.8679 15.1636 86.0925 14.8863C86.3185 14.6053 86.505 14.2554 86.6522 13.8365C86.7888 13.4478 86.8619 13.0771 86.8714 12.7243C86.886 12.369 86.8151 12.0579 86.6587 11.791C86.5024 11.5241 86.2431 11.3269 85.8808 11.1996C85.5411 11.0803 85.2276 11.0676 84.9402 11.1617C84.6541 11.2519 84.3968 11.435 84.1685 11.7109C83.9452 11.9843 83.7579 12.3362 83.6068 12.7664C83.4728 13.1475 83.4005 13.5164 83.3896 13.873C83.3788 14.2295 83.4528 14.5438 83.6116 14.8159C83.7704 15.0879 84.0328 15.2882 84.3989 15.4169Z" fill="#86EDA9"/>
<path d="M93.1291 20.1868C92.8509 20.0455 92.6039 19.8727 92.3879 19.6683C92.1719 19.464 92.0023 19.2334 91.879 18.9766C91.7593 18.7215 91.6977 18.4482 91.694 18.1566C91.694 17.8668 91.7699 17.5676 91.9218 17.259L93.7894 13.4636L94.9468 14.0331L93.1402 17.7047C92.9759 18.0385 92.9467 18.3607 93.0524 18.6712C93.1581 18.9818 93.4209 19.2405 93.8409 19.4471C94.2213 19.6343 94.5749 19.6857 94.9018 19.6013C95.2304 19.5134 95.4891 19.2774 95.6781 18.8934L97.4609 15.2702L98.6076 15.8345L95.8685 21.4011L94.9748 20.9613L95.3754 19.821C95.1678 20.08 94.9363 20.2558 94.6811 20.3487C94.4313 20.4397 94.172 20.4682 93.9035 20.4341C93.6403 20.3983 93.3822 20.3158 93.1291 20.1868Z" fill="#86EDA9"/>
<path d="M100.054 23.8666L103.385 18.6325L104.423 19.2928L103.74 20.3659C103.991 20.1653 104.248 20.0283 104.513 19.955C104.783 19.8804 105.051 19.8659 105.316 19.9113C105.583 19.9533 105.833 20.0484 106.066 20.1966C106.137 20.2417 106.201 20.2897 106.259 20.3406C106.319 20.3881 106.361 20.4338 106.385 20.4777L105.722 21.5205C105.691 21.4723 105.642 21.4223 105.575 21.3705C105.512 21.3208 105.456 21.2781 105.408 21.2426C105.189 21.0797 104.972 20.9583 104.758 20.8786C104.543 20.7988 104.336 20.7621 104.138 20.7686C103.943 20.7772 103.76 20.8338 103.589 20.9384C103.421 21.0452 103.272 21.2015 103.141 21.4073L101.137 24.5559L100.054 23.8666Z" fill="#86EDA9"/>
<path d="M110.847 34.27L116.457 28.3766L117.387 29.2618L116.684 30.0176C116.833 29.9715 116.996 29.942 117.174 29.9291C117.355 29.9133 117.543 29.9214 117.739 29.9533C117.941 29.9851 118.142 30.0495 118.342 30.1464C118.546 30.246 118.741 30.3855 118.93 30.5647C119.283 30.9012 119.516 31.2802 119.628 31.7018C119.746 32.1233 119.719 32.5752 119.547 33.0576C119.381 33.5399 119.051 34.0403 118.557 34.559C118.061 35.0805 117.568 35.445 117.078 35.6523C116.591 35.8624 116.12 35.925 115.665 35.84C115.213 35.7521 114.794 35.5248 114.409 35.1581C114.223 34.9816 114.082 34.7969 113.983 34.6041C113.885 34.4113 113.82 34.2191 113.787 34.0276C113.756 33.8331 113.748 33.648 113.76 33.4723C113.779 33.2964 113.809 33.1344 113.85 32.9862L111.782 35.1593L110.847 34.27ZM114.887 34.2635C115.232 34.5917 115.642 34.7272 116.116 34.6703C116.595 34.6131 117.107 34.2992 117.65 33.7284C118.116 33.2387 118.381 32.754 118.446 32.2743C118.516 31.7944 118.361 31.3738 117.982 31.0126C117.59 30.6403 117.153 30.5082 116.669 30.6164C116.188 30.7216 115.725 31.0075 115.281 31.474C114.992 31.7782 114.77 32.0977 114.617 32.4325C114.47 32.7672 114.413 33.094 114.446 33.4129C114.48 33.7318 114.627 34.0153 114.887 34.2635Z" fill="#86EDA9"/>
<path d="M119.846 40.7278L124.609 36.7515L125.397 37.6956L124.421 38.5109C124.721 38.3959 125.008 38.3436 125.282 38.3541C125.563 38.3651 125.822 38.4325 126.061 38.5562C126.303 38.6773 126.512 38.8438 126.689 39.0557C126.743 39.1201 126.789 39.1854 126.829 39.2514C126.871 39.3149 126.898 39.3712 126.907 39.4204L125.959 40.2125C125.944 40.1572 125.912 40.0948 125.865 40.0252C125.82 39.9587 125.779 39.9011 125.744 39.8525C125.585 39.6309 125.415 39.4495 125.235 39.3083C125.054 39.1671 124.869 39.0695 124.678 39.0154C124.489 38.9643 124.298 38.9627 124.103 39.0105C123.911 39.0614 123.721 39.1651 123.534 39.3215L120.669 41.7134L119.846 40.7278Z" fill="#86EDA9"/>
<path d="M126.31 49.5055C125.989 49.0224 125.811 48.5306 125.777 48.0302C125.747 47.531 125.865 47.0497 126.129 46.5864C126.394 46.1265 126.809 45.7095 127.372 45.3355C127.915 44.9747 128.452 44.7527 128.982 44.6693C129.515 44.5892 130.013 44.6549 130.475 44.8665C130.94 45.0759 131.342 45.4355 131.681 45.9453C132.004 46.4317 132.178 46.9241 132.201 47.4222C132.228 47.9182 132.103 48.3994 131.827 48.866C131.555 49.3304 131.132 49.7529 130.559 50.1336C130.036 50.481 129.512 50.6942 128.989 50.7732C128.467 50.8555 127.975 50.7936 127.511 50.5876C127.053 50.3827 126.653 50.022 126.31 49.5055ZM127.138 48.9628C127.333 49.256 127.572 49.45 127.856 49.5448C128.145 49.6407 128.463 49.6457 128.809 49.5598C129.159 49.4716 129.519 49.3047 129.888 49.0591C130.232 48.8311 130.513 48.5792 130.733 48.3033C130.959 48.0286 131.09 47.7376 131.126 47.4304C131.162 47.1231 131.074 46.8096 130.861 46.4897C130.662 46.1898 130.42 45.9908 130.134 45.8927C129.851 45.7924 129.535 45.7835 129.187 45.8661C128.844 45.9498 128.482 46.1178 128.103 46.3701C127.766 46.5936 127.486 46.8444 127.263 47.1225C127.039 47.4006 126.909 47.696 126.872 48.0088C126.834 48.3216 126.923 48.6396 127.138 48.9628Z" fill="#86EDA9"/>
<path d="M130.822 57.3745C130.287 57.6544 129.825 57.7425 129.437 57.6386C129.045 57.5366 128.695 57.1914 128.388 56.603C128.234 56.3088 128.159 56.1089 128.162 56.0032C128.16 55.8959 128.159 55.8423 128.159 55.8423L128.919 55.4447L129.218 55.9384C129.364 56.1648 129.515 56.298 129.671 56.3381C129.829 56.3817 130.025 56.3424 130.259 56.22L135.895 53.2728L136.49 54.4106L130.822 57.3745ZM138.687 53.2891L137.565 53.8758L136.942 52.6848L138.064 52.0981L138.687 53.2891Z" fill="#86EDA9"/>
<path d="M136.558 62.6415C136.212 62.7786 135.923 62.9574 135.692 63.178C135.467 63.4009 135.32 63.6593 135.251 63.9532C135.186 64.2457 135.222 64.563 135.357 64.9051C135.493 65.2472 135.688 65.5119 135.943 65.6991C136.2 65.89 136.498 65.9634 136.837 65.9191L137.275 67.0236C136.854 67.1129 136.457 67.0875 136.083 66.9474C135.71 66.8111 135.384 66.5961 135.104 66.3026C134.828 66.0076 134.614 65.6686 134.463 65.2856C134.246 64.7389 134.172 64.211 134.241 63.7016C134.314 63.1908 134.524 62.7313 134.87 62.3231C135.217 61.9187 135.694 61.5963 136.3 61.356C136.899 61.1187 137.469 61.0154 138.01 61.0461C138.555 61.0752 139.037 61.239 139.457 61.5375C139.876 61.8359 140.198 62.2677 140.422 62.8329C140.643 63.3907 140.71 63.9064 140.622 64.38C140.536 64.8574 140.316 65.2801 139.963 65.6481C139.614 66.0147 139.147 66.3137 138.563 66.5451L138.167 66.7021L136.558 62.6415ZM137.333 62.3342L138.491 65.2569C138.793 65.1375 139.045 64.9771 139.25 64.7757C139.457 64.5729 139.589 64.3356 139.645 64.0639C139.706 63.7944 139.672 63.498 139.544 63.1745C139.413 62.8435 139.224 62.6 138.977 62.444C138.73 62.288 138.46 62.2036 138.167 62.1908C137.875 62.1817 137.597 62.2295 137.333 62.3342Z" fill="#86EDA9"/>
<path d="M143.753 73.1105C143.871 73.5592 143.888 73.981 143.802 74.376C143.72 74.7739 143.552 75.1225 143.296 75.4217C143.039 75.721 142.709 75.9489 142.303 76.1056L142.02 75.0323C142.208 74.9455 142.372 74.8216 142.511 74.6606C142.652 74.5036 142.747 74.3151 142.797 74.0951C142.851 73.8781 142.844 73.638 142.774 73.375C142.648 72.8955 142.368 72.5513 141.937 72.3425C141.505 72.1337 140.926 72.1252 140.199 72.3171C139.534 72.4927 139.041 72.7717 138.72 73.1543C138.4 73.5407 138.311 74.0028 138.452 74.5404C138.521 74.7995 138.634 75.0095 138.792 75.1704C138.952 75.3352 139.131 75.4513 139.331 75.5185C139.531 75.5858 139.726 75.6109 139.916 75.5939L140.194 76.6497C139.781 76.7133 139.392 76.6752 139.029 76.5354C138.666 76.3994 138.353 76.1779 138.09 75.8709C137.828 75.5677 137.639 75.1957 137.522 74.7548C137.378 74.2094 137.369 73.6949 137.493 73.211C137.622 72.7262 137.885 72.3031 138.282 71.9419C138.684 71.5835 139.215 71.317 139.877 71.1425C140.499 70.9782 141.076 70.944 141.606 71.0399C142.136 71.1358 142.587 71.358 142.96 71.7063C143.335 72.0584 143.599 72.5265 143.753 73.1105Z" fill="#86EDA9"/>
<path d="M144.946 84.7226L144.74 83.346L141.08 83.9C140.878 83.9302 140.732 83.9722 140.643 84.0259C140.559 84.0831 140.51 84.1632 140.497 84.2662C140.489 84.3726 140.498 84.5128 140.524 84.6869L140.631 85.4049L139.807 85.5284C139.763 85.454 139.718 85.3395 139.67 85.1848C139.623 85.034 139.582 84.836 139.545 84.5908C139.477 84.1358 139.485 83.7726 139.57 83.5011C139.655 83.2335 139.805 83.0331 140.02 82.8998C140.239 82.77 140.513 82.6804 140.841 82.6313L144.55 82.0761L144.401 81.0792L145.314 80.9424L145.469 81.9749L147.32 82.0194L147.458 82.9392L145.66 83.2083L145.866 84.585L144.946 84.7226Z" fill="#86EDA9"/>
<path d="M145.523 100.796L145.565 99.4044L141.865 99.2977C141.661 99.2915 141.51 99.3069 141.413 99.3439C141.32 99.3851 141.258 99.4553 141.227 99.5544C141.199 99.6576 141.183 99.7971 141.178 99.9731L141.156 100.699L140.322 100.673C140.292 100.592 140.268 100.472 140.249 100.311C140.23 100.154 140.224 99.952 140.231 99.7041C140.246 99.2443 140.318 98.8884 140.45 98.6363C140.582 98.3882 140.765 98.2177 141 98.1248C141.239 98.036 141.524 97.9967 141.856 98.0068L145.604 98.121L145.635 97.1135L146.558 97.1417L146.527 98.1852L148.34 98.5586L148.312 99.4882L146.495 99.4328L146.452 100.824L145.523 100.796Z" fill="#86EDA9"/>
<path d="M139.353 108.108C139.434 107.534 139.627 107.048 139.934 106.651C140.243 106.258 140.651 105.976 141.156 105.805C141.66 105.637 142.247 105.601 142.916 105.695C143.562 105.786 144.111 105.976 144.563 106.266C145.014 106.56 145.342 106.94 145.547 107.405C145.757 107.87 145.818 108.406 145.733 109.012C145.652 109.591 145.454 110.074 145.141 110.462C144.832 110.851 144.419 111.128 143.903 111.293C143.391 111.46 142.794 111.495 142.113 111.399C141.491 111.311 140.958 111.123 140.514 110.834C140.069 110.55 139.742 110.176 139.533 109.715C139.326 109.257 139.266 108.722 139.353 108.108ZM140.332 108.252C140.283 108.6 140.333 108.904 140.483 109.164C140.635 109.428 140.87 109.642 141.186 109.808C141.506 109.974 141.885 110.088 142.325 110.15C142.733 110.208 143.111 110.206 143.459 110.146C143.81 110.091 144.101 109.96 144.332 109.754C144.563 109.548 144.705 109.255 144.759 108.875C144.809 108.519 144.76 108.209 144.611 107.945C144.466 107.683 144.236 107.466 143.921 107.297C143.609 107.132 143.227 107.017 142.775 106.954C142.375 106.897 141.999 106.899 141.648 106.959C141.296 107.018 141.002 107.153 140.767 107.362C140.531 107.571 140.386 107.868 140.332 108.252Z" fill="#86EDA9"/>
<path d="M135.386 124.168C135.53 123.76 135.729 123.4 135.983 123.087C136.237 122.777 136.544 122.55 136.904 122.406C137.263 122.265 137.668 122.241 138.12 122.332L137.739 123.413C137.499 123.383 137.282 123.411 137.087 123.495C136.894 123.584 136.728 123.712 136.589 123.879C136.451 124.051 136.344 124.249 136.265 124.471C136.135 124.841 136.096 125.162 136.148 125.435C136.203 125.713 136.37 125.901 136.649 126C136.849 126.07 137.031 126.064 137.196 125.982C137.359 125.904 137.516 125.743 137.665 125.499L138.353 124.431C138.637 123.988 138.952 123.664 139.3 123.46C139.651 123.258 140.05 123.233 140.497 123.386C140.84 123.507 141.116 123.699 141.324 123.964C141.53 124.232 141.649 124.562 141.68 124.955C141.716 125.349 141.644 125.798 141.466 126.304C141.233 126.964 140.899 127.442 140.464 127.739C140.029 128.035 139.529 128.092 138.966 127.91L139.335 126.863C139.616 126.92 139.868 126.871 140.092 126.717C140.319 126.568 140.491 126.325 140.61 125.99C140.732 125.642 140.763 125.333 140.701 125.061C140.644 124.791 140.474 124.606 140.191 124.506C139.999 124.438 139.817 124.465 139.647 124.588C139.48 124.711 139.304 124.923 139.118 125.222L138.45 126.233C138.273 126.494 138.09 126.694 137.9 126.835C137.715 126.977 137.53 127.075 137.345 127.129C137.161 127.183 136.982 127.203 136.809 127.188C136.635 127.178 136.478 127.148 136.338 127.099C135.968 126.968 135.685 126.762 135.487 126.481C135.292 126.204 135.184 125.867 135.163 125.469C135.144 125.077 135.219 124.643 135.386 124.168Z" fill="#86EDA9"/>
<path d="M135.839 136.822L136.443 135.568L133.104 133.969C132.92 133.88 132.776 133.833 132.672 133.828C132.57 133.827 132.485 133.866 132.416 133.944C132.35 134.028 132.278 134.149 132.202 134.307L131.887 134.961L131.136 134.6C131.142 134.514 131.168 134.394 131.216 134.239C131.262 134.088 131.339 133.901 131.446 133.677C131.646 133.263 131.857 132.967 132.079 132.79C132.3 132.617 132.537 132.535 132.789 132.546C133.044 132.562 133.32 132.641 133.62 132.785L136.999 134.411L137.436 133.502L138.269 133.903L137.816 134.843L139.322 135.921L138.919 136.759L137.281 135.971L136.677 137.225L135.839 136.822Z" fill="#86EDA9"/>
<path d="M127.646 140.341C127.858 140.002 128.107 139.738 128.395 139.549C128.68 139.364 128.984 139.269 129.308 139.263C129.632 139.258 129.957 139.357 130.283 139.56C130.867 139.924 131.174 140.403 131.204 140.997C131.234 141.591 130.975 142.347 130.427 143.263L129.912 144.145L130.294 144.383C130.596 144.571 130.89 144.63 131.175 144.558C131.46 144.486 131.718 144.262 131.947 143.887C132.123 143.605 132.215 143.314 132.224 143.012C132.23 142.715 132.107 142.44 131.854 142.188L132.445 141.241C132.782 141.479 133.013 141.763 133.138 142.091C133.265 142.424 133.29 142.789 133.213 143.184C133.136 143.579 132.963 143.992 132.694 144.423C132.396 144.902 132.084 145.254 131.759 145.481C131.438 145.709 131.105 145.82 130.76 145.812C130.414 145.808 130.061 145.694 129.701 145.47L126.02 143.174L126.595 142.252L127.616 142.769C127.335 142.32 127.211 141.896 127.243 141.497C127.277 141.103 127.411 140.718 127.646 140.341ZM128.192 141.155C128.088 141.321 128.014 141.504 127.97 141.703C127.93 141.904 127.919 142.102 127.938 142.298C127.961 142.496 128.013 142.675 128.093 142.833C128.171 142.995 128.277 143.12 128.411 143.208L129.281 143.751L129.71 143.029C129.933 142.663 130.089 142.331 130.176 142.032C130.262 141.737 130.272 141.474 130.207 141.246C130.141 141.02 129.983 140.83 129.736 140.676C129.454 140.5 129.172 140.461 128.89 140.558C128.611 140.657 128.378 140.857 128.192 141.155Z" fill="#86EDA9"/>
<path d="M123.005 147.319L127.879 151.158L127.118 152.124L126.119 151.337C126.293 151.607 126.404 151.877 126.45 152.148C126.497 152.425 126.485 152.692 126.413 152.951C126.344 153.213 126.225 153.452 126.054 153.669C126.002 153.735 125.948 153.794 125.891 153.847C125.838 153.901 125.788 153.939 125.742 153.958L124.771 153.194C124.822 153.168 124.877 153.124 124.935 153.063C124.991 153.005 125.039 152.954 125.079 152.909C125.263 152.708 125.406 152.504 125.507 152.299C125.607 152.093 125.665 151.891 125.678 151.693C125.689 151.498 125.651 151.31 125.564 151.13C125.475 150.952 125.334 150.788 125.143 150.637L122.211 148.328L123.005 147.319Z" fill="#86EDA9"/>
<path d="M119.028 159.849L119.994 158.846L117.323 156.282C117.176 156.141 117.054 156.051 116.957 156.013C116.861 155.981 116.767 155.991 116.678 156.044C116.589 156.102 116.483 156.195 116.361 156.322L115.857 156.845L115.256 156.266C115.289 156.186 115.352 156.08 115.446 155.948C115.536 155.819 115.668 155.666 115.84 155.487C116.159 155.156 116.452 154.941 116.719 154.842C116.983 154.747 117.233 154.744 117.47 154.833C117.706 154.927 117.944 155.09 118.183 155.32L120.884 157.921L121.584 157.195L122.249 157.836L121.525 158.588L122.618 160.082L121.973 160.752L120.664 159.491L119.698 160.494L119.028 159.849Z" fill="#86EDA9"/>
<path d="M104.603 162.634C104.913 162.415 105.145 162.286 105.298 162.246C105.448 162.209 105.523 162.19 105.523 162.19L106.001 162.866L105.479 163.22C105.276 163.349 105.124 163.473 105.023 163.594C104.919 163.716 104.852 163.832 104.821 163.942C104.785 164.051 104.771 164.151 104.778 164.244C104.785 164.337 104.798 164.419 104.818 164.488L104.962 165.025L110.414 168.549L109.365 169.29L105.298 166.551L106.533 171.292L105.504 172.019L103.834 165.176C103.729 164.721 103.694 164.337 103.731 164.022C103.765 163.709 103.858 163.442 104.011 163.222C104.164 163.001 104.361 162.805 104.603 162.634Z" fill="#86EDA9"/>
<path d="M95.6067 170.481C96.1168 170.205 96.6227 170.073 97.1242 170.083C97.624 170.099 98.0927 170.26 98.5303 170.564C98.9643 170.871 99.3422 171.321 99.6638 171.916C99.974 172.489 100.147 173.044 100.182 173.58C100.213 174.117 100.103 174.607 99.8505 175.048C99.5999 175.493 99.2055 175.861 98.6672 176.152C98.1535 176.43 97.6476 176.558 97.1493 176.536C96.653 176.518 96.1849 176.351 95.7452 176.034C95.3073 175.72 94.9247 175.261 94.5974 174.656C94.2986 174.104 94.1336 173.563 94.1022 173.034C94.0674 172.507 94.1735 172.023 94.4205 171.58C94.666 171.142 95.0614 170.776 95.6067 170.481ZM96.0724 171.355C95.7628 171.522 95.548 171.743 95.4279 172.017C95.3063 172.297 95.2726 172.613 95.3269 172.965C95.3831 173.322 95.5169 173.695 95.7281 174.085C95.9241 174.448 96.1495 174.751 96.4044 174.995C96.6576 175.245 96.9356 175.401 97.2383 175.465C97.5411 175.529 97.8613 175.469 98.1991 175.286C98.5157 175.115 98.7358 174.892 98.8594 174.616C98.9848 174.343 99.0222 174.029 98.9714 173.675C98.919 173.326 98.7843 172.951 98.5674 172.55C98.3752 172.194 98.1507 171.893 97.8939 171.645C97.6372 171.397 97.3547 171.241 97.0466 171.176C96.7384 171.11 96.4137 171.17 96.0724 171.355Z" fill="#86EDA9"/>
<path d="M86.6725 174.613C86.9641 174.502 87.2582 174.436 87.5546 174.413C87.8511 174.39 88.1358 174.42 88.4089 174.501C88.6782 174.584 88.922 174.722 89.1403 174.915C89.3549 175.11 89.5255 175.367 89.6519 175.687L91.207 179.621L90.0073 180.095L88.503 176.29C88.3663 175.944 88.1473 175.706 87.8463 175.575C87.5453 175.445 87.1771 175.466 86.7419 175.638C86.3476 175.793 86.0718 176.021 85.9146 176.319C85.7589 176.622 85.7597 176.972 85.9171 177.37L87.4016 181.125L86.213 181.595L83.9323 175.826L84.8585 175.459L85.4336 176.522C85.3815 176.195 85.4068 175.905 85.5096 175.654C85.6101 175.408 85.7632 175.196 85.9689 175.021C86.1724 174.85 86.4069 174.714 86.6725 174.613Z" fill="#86EDA9"/>
<path d="M79.2939 177.267L80.931 183.251L79.7446 183.576L79.4089 182.349C79.3888 182.67 79.3169 182.953 79.1933 183.198C79.0668 183.448 78.8977 183.656 78.686 183.822C78.4752 183.991 78.2368 184.113 77.9706 184.186C77.8895 184.208 77.8108 184.223 77.7343 184.231C77.6589 184.244 77.5968 184.244 77.548 184.233L77.2219 183.04C77.2784 183.05 77.3482 183.047 77.4313 183.033C77.5106 183.02 77.5797 183.007 77.6386 182.995C77.9063 182.942 78.1418 182.863 78.3452 182.758C78.5486 182.653 78.7146 182.524 78.8432 182.373C78.968 182.223 79.0491 182.049 79.0865 181.852C79.12 181.657 79.1046 181.441 79.0402 181.206L78.0554 177.606L79.2939 177.267Z" fill="#86EDA9"/>
<path d="M62.9438 180.109C62.8878 179.508 62.9814 179.047 63.2248 178.727C63.4677 178.403 63.9198 178.211 64.5809 178.149C64.9115 178.118 65.125 178.124 65.2214 178.168C65.3215 178.206 65.3715 178.226 65.3715 178.226L65.4511 179.08L64.8809 179.17C64.6163 179.218 64.4358 179.307 64.3394 179.437C64.2391 179.567 64.2011 179.763 64.2256 180.026L64.8159 186.359L63.5375 186.478L62.9438 180.109ZM63.7424 188.935L63.6249 187.675L64.9631 187.55L65.0806 188.811L63.7424 188.935Z" fill="#86EDA9"/>
<path d="M54.3812 180.48C54.9611 180.487 55.4677 180.616 55.9008 180.869C56.3299 181.126 56.6617 181.494 56.8962 181.973C57.1267 182.452 57.2381 183.029 57.2303 183.705C57.2228 184.357 57.1042 184.926 56.8746 185.411C56.641 185.896 56.3067 186.27 55.8717 186.533C55.4366 186.8 54.913 186.93 54.3011 186.923C53.7171 186.917 53.2126 186.783 52.7876 186.522C52.3625 186.265 52.0348 185.891 51.8044 185.401C51.574 184.914 51.4628 184.327 51.4707 183.639C51.4779 183.011 51.5963 182.458 51.8258 181.981C52.0513 181.503 52.3796 181.131 52.8107 180.864C53.2377 180.601 53.7612 180.473 54.3812 180.48ZM54.3638 181.47C54.0118 181.466 53.7168 181.554 53.4787 181.736C53.2365 181.921 53.0535 182.181 52.9297 182.515C52.8058 182.854 52.7413 183.245 52.7362 183.689C52.7314 184.101 52.7811 184.476 52.8853 184.813C52.9853 185.154 53.1522 185.426 53.3859 185.629C53.6196 185.832 53.9284 185.935 54.3124 185.939C54.6724 185.944 54.9734 185.855 55.2155 185.674C55.4576 185.497 55.6425 185.241 55.7704 184.906C55.8942 184.576 55.9587 184.182 55.964 183.726C55.9686 183.322 55.9189 182.95 55.8148 182.609C55.7107 182.267 55.5399 181.993 55.3022 181.787C55.0646 181.58 54.7518 181.474 54.3638 181.47Z" fill="#86EDA9"/>
<path d="M44.5644 179.752C44.8732 179.796 45.1627 179.881 45.4328 180.005C45.7029 180.129 45.9375 180.293 46.1366 180.497C46.3317 180.7 46.4778 180.939 46.5747 181.214C46.6677 181.489 46.6917 181.797 46.6468 182.138L46.0948 186.332L44.8159 186.163L45.3499 182.106C45.3984 181.737 45.3228 181.423 45.1231 181.162C44.9233 180.902 44.5915 180.742 44.1275 180.68C43.7071 180.625 43.3556 180.69 43.0731 180.875C42.7901 181.063 42.6206 181.37 42.5648 181.794L42.0378 185.798L40.7707 185.631L41.5804 179.48L42.5679 179.61L42.554 180.818C42.6677 180.506 42.8305 180.266 43.0425 180.096C43.25 179.93 43.4863 179.819 43.7516 179.766C44.0124 179.715 44.2834 179.71 44.5644 179.752Z" fill="#86EDA9"/>
<path d="M36.8256 178.486L35.3491 184.512L34.1545 184.219L34.4572 182.984C34.2838 183.254 34.0835 183.466 33.8563 183.621C33.6242 183.778 33.3753 183.878 33.1097 183.92C32.8431 183.966 32.5758 183.956 32.3077 183.89C32.2261 183.87 32.1498 183.845 32.0789 183.815C32.007 183.79 31.9525 183.76 31.9155 183.726L32.2096 182.525C32.2544 182.561 32.3167 182.593 32.3964 182.621C32.4722 182.647 32.5387 182.67 32.596 182.688C32.8555 182.772 33.0997 182.818 33.3287 182.824C33.5576 182.831 33.7651 182.8 33.9511 182.73C34.1331 182.659 34.2883 182.547 34.4166 182.393C34.541 182.238 34.6323 182.042 34.6903 181.805L35.5785 178.18L36.8256 178.486Z" fill="#86EDA9"/>
<path d="M28.7417 176.228L26.616 182.056L25.4379 181.626L25.7442 180.787C25.5927 180.91 25.4127 181.013 25.2041 181.094C24.9918 181.174 24.7534 181.215 24.4889 181.216C24.2206 181.217 23.9324 181.16 23.6243 181.048C23.2598 180.915 22.9502 180.719 22.6955 180.46C22.4357 180.204 22.268 179.887 22.1925 179.51C22.1156 179.137 22.1656 178.709 22.3424 178.224L23.7362 174.402L24.9425 174.842L23.5959 178.534C23.4438 178.951 23.4435 179.302 23.5949 179.588C23.7426 179.871 23.9931 180.078 24.3463 180.206C24.5831 180.293 24.823 180.336 25.0659 180.335C25.3089 180.334 25.5256 180.277 25.7161 180.163C25.9052 180.053 26.0436 179.878 26.1313 179.638L27.5354 175.788L28.7417 176.228Z" fill="#86EDA9"/>
<path d="M17.2423 174.505C17.4105 174.173 17.508 173.848 17.5347 173.53C17.5561 173.213 17.4951 172.922 17.3517 172.657C17.2064 172.395 16.9696 172.18 16.6414 172.014C16.3131 171.848 15.9915 171.779 15.6765 171.808C15.3579 171.834 15.0862 171.977 14.8611 172.235L13.8015 171.698C14.0574 171.352 14.3718 171.108 14.7446 170.965C15.1139 170.821 15.5006 170.765 15.9047 170.8C16.307 170.838 16.6919 170.95 17.0594 171.136C17.5839 171.402 17.989 171.749 18.2746 172.176C18.5585 172.607 18.7062 173.09 18.7176 173.625C18.7254 174.158 18.5819 174.715 18.2872 175.297C17.996 175.871 17.6376 176.326 17.2118 176.662C16.7842 177.001 16.3144 177.198 15.8025 177.253C15.2906 177.307 14.7635 177.197 14.2211 176.922C13.6859 176.651 13.2943 176.309 13.0461 175.896C12.7943 175.481 12.6787 175.019 12.6994 174.51C12.7183 174.003 12.8697 173.47 13.1536 172.91L13.3461 172.53L17.2423 174.505ZM16.8653 175.249L14.0609 173.827C13.9144 174.116 13.8315 174.404 13.812 174.69C13.7908 174.98 13.8492 175.245 13.9875 175.485C14.1203 175.727 14.3419 175.927 14.6523 176.085C14.9699 176.245 15.2728 176.303 15.5611 176.256C15.8493 176.209 16.1076 176.093 16.3357 175.909C16.5604 175.722 16.7369 175.502 16.8653 175.249Z" fill="#86EDA9"/>
<path d="M11.0374 165.534C11.3535 165.745 11.5576 165.915 11.6496 166.044C11.7383 166.17 11.7826 166.233 11.7826 166.233L11.323 166.922L10.8057 166.562C10.6127 166.419 10.4419 166.322 10.2933 166.271C10.1413 166.218 10.0087 166.197 9.89556 166.208C9.78129 166.213 9.68199 166.236 9.59766 166.276C9.51332 166.316 9.4423 166.357 9.38459 166.4L8.93514 166.728L7.60258 173.081L6.53456 172.368L7.63175 167.589L3.6499 170.443L2.60184 169.744L8.38977 165.729C8.77596 165.468 9.12273 165.298 9.43007 165.219C9.73408 165.138 10.0164 165.129 10.2771 165.193C10.5378 165.256 10.7912 165.37 11.0374 165.534Z" fill="#86EDA9"/>
</svg>
