<svg width="24" height="24" viewBox="0 0 24 24" fill="none" xmlns="http://www.w3.org/2000/svg">
<rect width="24" height="24" rx="12" fill="#86EDA9"/>
<path d="M7 11.5C6.72386 11.5 6.5 11.7239 6.5 12C6.5 12.2761 6.72386 12.5 7 12.5V11.5ZM16.3536 12.3536C16.5488 12.1583 16.5488 11.8417 16.3536 11.6464L13.1716 8.46447C12.9763 8.2692 12.6597 8.2692 12.4645 8.46447C12.2692 8.65973 12.2692 8.97631 12.4645 9.17157L15.2929 12L12.4645 14.8284C12.2692 15.0237 12.2692 15.3403 12.4645 15.5355C12.6597 15.7308 12.9763 15.7308 13.1716 15.5355L16.3536 12.3536ZM7 12.5L16 12.5V11.5L7 11.5V12.5Z" fill="black"/>
</svg>
