<svg width="56" height="45" viewBox="0 0 56 45" fill="none" xmlns="http://www.w3.org/2000/svg">
<path fill-rule="evenodd" clip-rule="evenodd" d="M0 33.5553C3.33826e-08 33.1699 0.328003 32.8576 0.732616 32.8576L54.5799 32.8576C54.9845 32.8576 55.3125 33.1699 55.3125 33.5553C55.3125 33.9406 54.9845 34.2529 54.5799 34.2529L0.732616 34.2529C0.328003 34.2529 -3.33825e-08 33.9406 0 33.5553Z" fill="black"/>
<path fill-rule="evenodd" clip-rule="evenodd" d="M11.6876 0C12.0695 1.68426e-08 12.379 0.307591 12.379 0.687023L12.379 44.313C12.379 44.6924 12.0695 45 11.6876 45C11.3058 45 10.9962 44.6924 10.9962 44.313L10.9962 0.687023C10.9962 0.307591 11.3058 -1.68426e-08 11.6876 0Z" fill="black"/>
<path fill-rule="evenodd" clip-rule="evenodd" d="M40.8986 14.7449C40.7231 14.8901 40.6213 15.1071 40.6213 15.3361V18.7703C40.6213 19.1926 40.9606 19.5349 41.379 19.5349H54.5548C54.9732 19.5349 55.3125 19.1926 55.3125 18.7703V14.9079C55.3125 14.4857 54.9732 14.1433 54.5548 14.1433H50.3472C50.2165 14.1433 50.16 13.9763 50.2634 13.8957L50.2646 13.8947C51.7602 12.7261 52.9906 11.7006 53.8298 10.5586C54.7109 9.35929 55.1425 8.06229 55.1425 6.40932V6.36029C55.1425 4.47889 54.4511 2.85619 53.1842 1.71402C51.929 0.582488 50.1972 6.22935e-07 48.234 6.22935e-07C46.5617 6.22935e-07 45.2012 0.34749 44.0133 1.06396C42.8436 1.76947 41.9191 2.78686 41.0446 3.98932L40.8757 4.22153C40.636 4.55114 40.6957 5.01271 41.0112 5.26922L44.0872 7.77034C44.4122 8.03455 44.8877 7.9839 45.1508 7.65705L45.3379 7.42453C46.582 5.8791 47.2033 5.5141 47.9912 5.5141C48.4594 5.5141 48.7516 5.64982 48.9165 5.80376C49.0695 5.9465 49.2181 6.20159 49.2181 6.67895C49.2181 7.53276 48.8308 8.1643 46.6643 9.97427L46.6623 9.97591L40.8986 14.7449Z" fill="black"/>
<path fill-rule="evenodd" clip-rule="evenodd" d="M15.9687 6.22935e-07C15.5502 6.22935e-07 15.2109 0.342313 15.2109 0.764576V29.5843C15.2109 30.0065 15.5502 30.3488 15.9687 30.3488H23.5999C24.0183 30.3488 24.3576 30.0065 24.3576 29.5843V22.4749C24.3576 22.0526 24.6968 21.7103 25.1153 21.7103H25.9121C26.219 21.7103 26.4955 21.8971 26.6125 22.1833L29.7573 29.8758C29.8743 30.1621 30.1509 30.3488 30.4578 30.3488H39.5949C40.1513 30.3488 40.518 29.7639 40.2795 29.2566L36.0857 20.3358C35.9176 19.9782 36.0495 19.5529 36.3739 19.3304C37.2935 18.6999 38.1101 17.9249 38.7811 16.9945C40.0124 15.2871 40.6802 13.1563 40.6802 10.6623V10.5852C40.6802 7.67669 39.7616 5.10094 37.9192 3.22921C35.7778 1.05362 32.6861 6.22935e-07 29.0084 6.22935e-07H15.9687ZM25.1153 13.112C24.6968 13.112 24.3576 12.7697 24.3576 12.3475V9.47855C24.3576 9.05629 24.6968 8.71397 25.1153 8.71397H28.515C29.7187 8.71397 30.4488 8.99476 30.8463 9.31878C31.1878 9.59718 31.4577 10.0452 31.4577 10.8937V10.9709C31.4577 11.6755 31.2197 12.1462 30.8575 12.4639C30.47 12.8038 29.7709 13.112 28.6288 13.112H25.1153Z" fill="black"/>
</svg>
